<svg width="93" height="28" viewBox="0 0 93 28" fill="none" xmlns="http://www.w3.org/2000/svg">
<rect x="0.5" y="0.5" width="91.91" height="26.06" rx="2.7" stroke="#0E0E0E"/>
<path d="M10.9547 10.3678V13.024H13.8503V13.879H10.9547V16.615H14.1923V17.47H9.9173V9.51277H14.1923V10.3678H10.9547ZM19.0224 17.47L17.5404 15.1444L16.1154 17.47H15.0324L17.0502 14.3692L15.0324 11.2228H16.2066L17.6886 13.537L19.1022 11.2228H20.1852L18.1788 14.3122L20.1966 17.47H19.0224ZM22.2545 12.3742C22.4597 12.017 22.7637 11.7206 23.1665 11.485C23.5769 11.2418 24.0519 11.1202 24.5915 11.1202C25.1463 11.1202 25.6479 11.2532 26.0963 11.5192C26.5523 11.7852 26.9095 12.1614 27.1679 12.6478C27.4263 13.1266 27.5555 13.6852 27.5555 14.3236C27.5555 14.9544 27.4263 15.5168 27.1679 16.0108C26.9095 16.5048 26.5523 16.8886 26.0963 17.1622C25.6479 17.4358 25.1463 17.5726 24.5915 17.5726C24.0595 17.5726 23.5883 17.4548 23.1779 17.2192C22.7751 16.976 22.4673 16.6758 22.2545 16.3186V20.434H21.2171V11.2228H22.2545V12.3742ZM26.4953 14.3236C26.4953 13.8524 26.4003 13.442 26.2103 13.0924C26.0203 12.7428 25.7619 12.4768 25.4351 12.2944C25.1159 12.112 24.7625 12.0208 24.3749 12.0208C23.9949 12.0208 23.6415 12.1158 23.3147 12.3058C22.9955 12.4882 22.7371 12.758 22.5395 13.1152C22.3495 13.4648 22.2545 13.8714 22.2545 14.335C22.2545 14.8062 22.3495 15.2204 22.5395 15.5776C22.7371 15.9272 22.9955 16.197 23.3147 16.387C23.6415 16.5694 23.9949 16.6606 24.3749 16.6606C24.7625 16.6606 25.1159 16.5694 25.4351 16.387C25.7619 16.197 26.0203 15.9272 26.2103 15.5776C26.4003 15.2204 26.4953 14.8024 26.4953 14.3236ZM31.6456 17.5726C31.0604 17.5726 30.5284 17.4396 30.0496 17.1736C29.5784 16.9076 29.206 16.5314 28.9324 16.045C28.6664 15.551 28.5334 14.981 28.5334 14.335C28.5334 13.6966 28.6702 13.1342 28.9438 12.6478C29.225 12.1538 29.605 11.7776 30.0838 11.5192C30.5626 11.2532 31.0984 11.1202 31.6912 11.1202C32.284 11.1202 32.8198 11.2532 33.2986 11.5192C33.7774 11.7776 34.1536 12.15 34.4272 12.6364C34.7084 13.1228 34.849 13.689 34.849 14.335C34.849 14.981 34.7046 15.551 34.4158 16.045C34.1346 16.5314 33.7508 16.9076 33.2644 17.1736C32.778 17.4396 32.2384 17.5726 31.6456 17.5726ZM31.6456 16.6606C32.018 16.6606 32.3676 16.5732 32.6944 16.3984C33.0212 16.2236 33.2834 15.9614 33.481 15.6118C33.6862 15.2622 33.7888 14.8366 33.7888 14.335C33.7888 13.8334 33.69 13.4078 33.4924 13.0582C33.2948 12.7086 33.0364 12.4502 32.7172 12.283C32.398 12.1082 32.0522 12.0208 31.6798 12.0208C31.2998 12.0208 30.9502 12.1082 30.631 12.283C30.3194 12.4502 30.0686 12.7086 29.8786 13.0582C29.6886 13.4078 29.5936 13.8334 29.5936 14.335C29.5936 14.8442 29.6848 15.2736 29.8672 15.6232C30.0572 15.9728 30.308 16.235 30.6196 16.4098C30.9312 16.577 31.2732 16.6606 31.6456 16.6606ZM37.2504 12.2374C37.4328 11.8802 37.6912 11.6028 38.0256 11.4052C38.3676 11.2076 38.7818 11.1088 39.2682 11.1088V12.1804H38.9946C37.8318 12.1804 37.2504 12.8112 37.2504 14.0728V17.47H36.213V11.2228H37.2504V12.2374ZM41.7311 12.0778V15.76C41.7311 16.064 41.7957 16.2806 41.9249 16.4098C42.0541 16.5314 42.2783 16.5922 42.5975 16.5922H43.3613V17.47H42.4265C41.8489 17.47 41.4157 17.337 41.1269 17.071C40.8381 16.805 40.6937 16.368 40.6937 15.76V12.0778H39.8843V11.2228H40.6937V9.64957H41.7311V11.2228H43.3613V12.0778H41.7311ZM51.8413 17.47L49.9489 14.221H48.6949V17.47H47.6575V9.52417H50.2225C50.8229 9.52417 51.3283 9.62677 51.7387 9.83197C52.1567 10.0372 52.4683 10.3146 52.6735 10.6642C52.8787 11.0138 52.9813 11.4128 52.9813 11.8612C52.9813 12.4084 52.8217 12.891 52.5025 13.309C52.1909 13.727 51.7197 14.0044 51.0889 14.1412L53.0839 17.47H51.8413ZM48.6949 13.3888H50.2225C50.7849 13.3888 51.2067 13.252 51.4879 12.9784C51.7691 12.6972 51.9097 12.3248 51.9097 11.8612C51.9097 11.39 51.7691 11.0252 51.4879 10.7668C51.2143 10.5084 50.7925 10.3792 50.2225 10.3792H48.6949V13.3888ZM60.2933 14.107C60.2933 14.3046 60.2819 14.5136 60.2591 14.734H55.2659C55.3039 15.3496 55.5129 15.8322 55.8929 16.1818C56.2805 16.5238 56.7479 16.6948 57.2951 16.6948C57.7435 16.6948 58.1159 16.5922 58.4123 16.387C58.7163 16.1742 58.9291 15.893 59.0507 15.5434H60.1679C60.0007 16.1438 59.6663 16.634 59.1647 17.014C58.6631 17.3864 58.0399 17.5726 57.2951 17.5726C56.7023 17.5726 56.1703 17.4396 55.6991 17.1736C55.2355 16.9076 54.8707 16.5314 54.6047 16.045C54.3387 15.551 54.2057 14.981 54.2057 14.335C54.2057 13.689 54.3349 13.1228 54.5933 12.6364C54.8517 12.15 55.2127 11.7776 55.6763 11.5192C56.1475 11.2532 56.6871 11.1202 57.2951 11.1202C57.8879 11.1202 58.4123 11.2494 58.8683 11.5078C59.3243 11.7662 59.6739 12.1234 59.9171 12.5794C60.1679 13.0278 60.2933 13.537 60.2933 14.107ZM59.2217 13.8904C59.2217 13.4952 59.1343 13.157 58.9595 12.8758C58.7847 12.587 58.5453 12.3704 58.2413 12.226C57.9449 12.074 57.6143 11.998 57.2495 11.998C56.7251 11.998 56.2767 12.1652 55.9043 12.4996C55.5395 12.834 55.3305 13.2976 55.2773 13.8904H59.2217ZM62.7 12.3742C62.9052 12.017 63.2092 11.7206 63.612 11.485C64.0224 11.2418 64.4974 11.1202 65.037 11.1202C65.5918 11.1202 66.0934 11.2532 66.5418 11.5192C66.9978 11.7852 67.355 12.1614 67.6134 12.6478C67.8718 13.1266 68.001 13.6852 68.001 14.3236C68.001 14.9544 67.8718 15.5168 67.6134 16.0108C67.355 16.5048 66.9978 16.8886 66.5418 17.1622C66.0934 17.4358 65.5918 17.5726 65.037 17.5726C64.505 17.5726 64.0338 17.4548 63.6234 17.2192C63.2206 16.976 62.9128 16.6758 62.7 16.3186V20.434H61.6626V11.2228H62.7V12.3742ZM66.9408 14.3236C66.9408 13.8524 66.8458 13.442 66.6558 13.0924C66.4658 12.7428 66.2074 12.4768 65.8806 12.2944C65.5614 12.112 65.208 12.0208 64.8204 12.0208C64.4404 12.0208 64.087 12.1158 63.7602 12.3058C63.441 12.4882 63.1826 12.758 62.985 13.1152C62.795 13.4648 62.7 13.8714 62.7 14.335C62.7 14.8062 62.795 15.2204 62.985 15.5776C63.1826 15.9272 63.441 16.197 63.7602 16.387C64.087 16.5694 64.4404 16.6606 64.8204 16.6606C65.208 16.6606 65.5614 16.5694 65.8806 16.387C66.2074 16.197 66.4658 15.9272 66.6558 15.5776C66.8458 15.2204 66.9408 14.8024 66.9408 14.3236ZM72.0911 17.5726C71.5059 17.5726 70.9739 17.4396 70.4951 17.1736C70.0239 16.9076 69.6515 16.5314 69.3779 16.045C69.1119 15.551 68.9789 14.981 68.9789 14.335C68.9789 13.6966 69.1157 13.1342 69.3893 12.6478C69.6705 12.1538 70.0505 11.7776 70.5293 11.5192C71.0081 11.2532 71.5439 11.1202 72.1367 11.1202C72.7295 11.1202 73.2653 11.2532 73.7441 11.5192C74.2229 11.7776 74.5991 12.15 74.8727 12.6364C75.1539 13.1228 75.2945 13.689 75.2945 14.335C75.2945 14.981 75.1501 15.551 74.8613 16.045C74.5801 16.5314 74.1963 16.9076 73.7099 17.1736C73.2235 17.4396 72.6839 17.5726 72.0911 17.5726ZM72.0911 16.6606C72.4635 16.6606 72.8131 16.5732 73.1399 16.3984C73.4667 16.2236 73.7289 15.9614 73.9265 15.6118C74.1317 15.2622 74.2343 14.8366 74.2343 14.335C74.2343 13.8334 74.1355 13.4078 73.9379 13.0582C73.7403 12.7086 73.4819 12.4502 73.1627 12.283C72.8435 12.1082 72.4977 12.0208 72.1253 12.0208C71.7453 12.0208 71.3957 12.1082 71.0765 12.283C70.7649 12.4502 70.5141 12.7086 70.3241 13.0582C70.1341 13.4078 70.0391 13.8334 70.0391 14.335C70.0391 14.8442 70.1303 15.2736 70.3127 15.6232C70.5027 15.9728 70.7535 16.235 71.0651 16.4098C71.3767 16.577 71.7187 16.6606 72.0911 16.6606ZM77.6959 12.2374C77.8783 11.8802 78.1367 11.6028 78.4711 11.4052C78.8131 11.2076 79.2273 11.1088 79.7137 11.1088V12.1804H79.4401C78.2773 12.1804 77.6959 12.8112 77.6959 14.0728V17.47H76.6585V11.2228H77.6959V12.2374ZM82.1766 12.0778V15.76C82.1766 16.064 82.2412 16.2806 82.3704 16.4098C82.4996 16.5314 82.7238 16.5922 83.043 16.5922H83.8068V17.47H82.872C82.2944 17.47 81.8612 17.337 81.5724 17.071C81.2836 16.805 81.1392 16.368 81.1392 15.76V12.0778H80.3298V11.2228H81.1392V9.64957H82.1766V11.2228H83.8068V12.0778H82.1766Z" fill="#0E0E0E"/>
</svg>
