<svg width="103" height="40" viewBox="0 0 103 40" fill="none" xmlns="http://www.w3.org/2000/svg">
<rect x="0.5" y="0.5" width="102" height="39" rx="2.7" stroke="#0E0E0E"/>
<path d="M20.4418 15.994V18.79H23.4898V19.69H20.4418V22.57H23.8498V23.47H19.3498V15.094H23.8498V15.994H20.4418ZM28.9341 23.47L27.3741 21.022L25.8741 23.47H24.7341L26.8581 20.206L24.7341 16.894H25.9701L27.5301 19.33L29.0181 16.894H30.1581L28.0461 20.146L30.1701 23.47H28.9341ZM32.3363 18.106C32.5523 17.73 32.8723 17.418 33.2963 17.17C33.7283 16.914 34.2283 16.786 34.7963 16.786C35.3803 16.786 35.9083 16.926 36.3803 17.206C36.8603 17.486 37.2363 17.882 37.5083 18.394C37.7803 18.898 37.9163 19.486 37.9163 20.158C37.9163 20.822 37.7803 21.414 37.5083 21.934C37.2363 22.454 36.8603 22.858 36.3803 23.146C35.9083 23.434 35.3803 23.578 34.7963 23.578C34.2363 23.578 33.7403 23.454 33.3083 23.206C32.8843 22.95 32.5603 22.634 32.3363 22.258V26.59H31.2443V16.894H32.3363V18.106ZM36.8003 20.158C36.8003 19.662 36.7003 19.23 36.5003 18.862C36.3003 18.494 36.0283 18.214 35.6843 18.022C35.3483 17.83 34.9763 17.734 34.5683 17.734C34.1683 17.734 33.7963 17.834 33.4523 18.034C33.1163 18.226 32.8443 18.51 32.6363 18.886C32.4363 19.254 32.3363 19.682 32.3363 20.17C32.3363 20.666 32.4363 21.102 32.6363 21.478C32.8443 21.846 33.1163 22.13 33.4523 22.33C33.7963 22.522 34.1683 22.618 34.5683 22.618C34.9763 22.618 35.3483 22.522 35.6843 22.33C36.0283 22.13 36.3003 21.846 36.5003 21.478C36.7003 21.102 36.8003 20.662 36.8003 20.158ZM42.2217 23.578C41.6057 23.578 41.0457 23.438 40.5417 23.158C40.0457 22.878 39.6537 22.482 39.3657 21.97C39.0857 21.45 38.9457 20.85 38.9457 20.17C38.9457 19.498 39.0897 18.906 39.3777 18.394C39.6737 17.874 40.0737 17.478 40.5777 17.206C41.0817 16.926 41.6457 16.786 42.2697 16.786C42.8937 16.786 43.4577 16.926 43.9617 17.206C44.4657 17.478 44.8617 17.87 45.1497 18.382C45.4457 18.894 45.5937 19.49 45.5937 20.17C45.5937 20.85 45.4417 21.45 45.1377 21.97C44.8417 22.482 44.4377 22.878 43.9257 23.158C43.4137 23.438 42.8457 23.578 42.2217 23.578ZM42.2217 22.618C42.6137 22.618 42.9817 22.526 43.3257 22.342C43.6697 22.158 43.9457 21.882 44.1537 21.514C44.3697 21.146 44.4777 20.698 44.4777 20.17C44.4777 19.642 44.3737 19.194 44.1657 18.826C43.9577 18.458 43.6857 18.186 43.3497 18.01C43.0137 17.826 42.6497 17.734 42.2577 17.734C41.8577 17.734 41.4897 17.826 41.1537 18.01C40.8257 18.186 40.5617 18.458 40.3617 18.826C40.1617 19.194 40.0617 19.642 40.0617 20.17C40.0617 20.706 40.1577 21.158 40.3497 21.526C40.5497 21.894 40.8137 22.17 41.1417 22.354C41.4697 22.53 41.8297 22.618 42.2217 22.618ZM48.1215 17.962C48.3135 17.586 48.5855 17.294 48.9375 17.086C49.2975 16.878 49.7335 16.774 50.2455 16.774V17.902H49.9575C48.7335 17.902 48.1215 18.566 48.1215 19.894V23.47H47.0295V16.894H48.1215V17.962ZM52.838 17.794V21.67C52.838 21.99 52.906 22.218 53.042 22.354C53.178 22.482 53.414 22.546 53.75 22.546H54.554V23.47H53.57C52.962 23.47 52.506 23.33 52.202 23.05C51.898 22.77 51.746 22.31 51.746 21.67V17.794H50.894V16.894H51.746V15.238H52.838V16.894H54.554V17.794H52.838ZM58.6683 19.282C58.6683 18.466 58.8523 17.734 59.2203 17.086C59.5883 16.43 60.0883 15.918 60.7203 15.55C61.3603 15.182 62.0683 14.998 62.8443 14.998C63.7563 14.998 64.5523 15.218 65.2323 15.658C65.9123 16.098 66.4083 16.722 66.7203 17.53H65.4123C65.1803 17.026 64.8443 16.638 64.4043 16.366C63.9723 16.094 63.4523 15.958 62.8443 15.958C62.2603 15.958 61.7363 16.094 61.2723 16.366C60.8083 16.638 60.4443 17.026 60.1803 17.53C59.9163 18.026 59.7843 18.61 59.7843 19.282C59.7843 19.946 59.9163 20.53 60.1803 21.034C60.4443 21.53 60.8083 21.914 61.2723 22.186C61.7363 22.458 62.2603 22.594 62.8443 22.594C63.4523 22.594 63.9723 22.462 64.4043 22.198C64.8443 21.926 65.1803 21.538 65.4123 21.034H66.7203C66.4083 21.834 65.9123 22.454 65.2323 22.894C64.5523 23.326 63.7563 23.542 62.8443 23.542C62.0683 23.542 61.3603 23.362 60.7203 23.002C60.0883 22.634 59.5883 22.126 59.2203 21.478C58.8523 20.83 58.6683 20.098 58.6683 19.282ZM70.9979 23.554C70.4459 23.554 69.9499 23.458 69.5099 23.266C69.0779 23.066 68.7379 22.794 68.4899 22.45C68.2419 22.098 68.1139 21.694 68.1059 21.238H69.2699C69.3099 21.63 69.4699 21.962 69.7499 22.234C70.0379 22.498 70.4539 22.63 70.9979 22.63C71.5179 22.63 71.9259 22.502 72.2219 22.246C72.5259 21.982 72.6779 21.646 72.6779 21.238C72.6779 20.918 72.5899 20.658 72.4139 20.458C72.2379 20.258 72.0179 20.106 71.7539 20.002C71.4899 19.898 71.1339 19.786 70.6859 19.666C70.1339 19.522 69.6899 19.378 69.3539 19.234C69.0259 19.09 68.7419 18.866 68.5019 18.562C68.2699 18.25 68.1539 17.834 68.1539 17.314C68.1539 16.858 68.2699 16.454 68.5019 16.102C68.7339 15.75 69.0579 15.478 69.4739 15.286C69.8979 15.094 70.3819 14.998 70.9259 14.998C71.7099 14.998 72.3499 15.194 72.8459 15.586C73.3499 15.978 73.6339 16.498 73.6979 17.146H72.4979C72.4579 16.826 72.2899 16.546 71.9939 16.306C71.6979 16.058 71.3059 15.934 70.8179 15.934C70.3619 15.934 69.9899 16.054 69.7019 16.294C69.4139 16.526 69.2699 16.854 69.2699 17.278C69.2699 17.582 69.3539 17.83 69.5219 18.022C69.6979 18.214 69.9099 18.362 70.1579 18.466C70.4139 18.562 70.7699 18.674 71.2259 18.802C71.7779 18.954 72.2219 19.106 72.5579 19.258C72.8939 19.402 73.1819 19.63 73.4219 19.942C73.6619 20.246 73.7819 20.662 73.7819 21.19C73.7819 21.598 73.6739 21.982 73.4579 22.342C73.2419 22.702 72.9219 22.994 72.4979 23.218C72.0739 23.442 71.5739 23.554 70.9979 23.554ZM82.3008 15.106L79.1448 23.47H77.8848L74.7288 15.106H75.8928L78.5208 22.318L81.1488 15.106H82.3008Z" fill="#0E0E0E"/>
</svg>
