<svg width="126" height="28" viewBox="0 0 126 28" fill="none" xmlns="http://www.w3.org/2000/svg">
<rect x="0.5" y="0.5" width="124.53" height="26.42" rx="2.7" stroke="#0E0E0E"/>
<path d="M16.7279 17.9062H10.3637C10.1175 17.9062 9.89023 17.8447 9.68187 17.7216C9.47352 17.5985 9.30779 17.4327 9.18467 17.2244C9.06156 17.016 9 16.7887 9 16.5425V9.26917C9 9.14289 9.0442 9.03556 9.13259 8.94717C9.22098 8.85878 9.32831 8.81458 9.45458 8.81458H15.8187C15.945 8.81458 16.0524 8.85878 16.1407 8.94717C16.2291 9.03556 16.2733 9.14289 16.2733 9.26917V14.7242H18.0917V16.5425C18.0917 16.7887 18.0301 17.016 17.907 17.2244C17.7839 17.4327 17.6181 17.5985 17.4098 17.7216C17.2014 17.8447 16.9741 17.9062 16.7279 17.9062ZM16.2733 15.6333V16.5425C16.2733 16.6688 16.3175 16.7761 16.4059 16.8645C16.4943 16.9529 16.6016 16.9971 16.7279 16.9971C16.8542 16.9971 16.9615 16.9529 17.0499 16.8645C17.1383 16.7761 17.1825 16.6688 17.1825 16.5425V15.6333H16.2733ZM15.3642 16.9971V9.72375H9.90917V16.5425C9.90917 16.6688 9.95336 16.7761 10.0418 16.8645C10.1301 16.9529 10.2375 16.9971 10.3637 16.9971H15.3642ZM10.8183 11.0875H14.455V11.9967H10.8183V11.0875ZM10.8183 12.9058H14.455V13.815H10.8183V12.9058ZM10.8183 14.7242H13.0912V15.6333H10.8183V14.7242Z" fill="#0E0E0E"/>
<path d="M29.8527 11.8267C29.6323 11.3631 29.3131 11.0059 28.8951 10.7551C28.4771 10.4967 27.9907 10.3675 27.4359 10.3675C26.8811 10.3675 26.3795 10.4967 25.9311 10.7551C25.4903 11.0059 25.1407 11.3707 24.8823 11.8495C24.6315 12.3207 24.5061 12.8679 24.5061 13.4911C24.5061 14.1143 24.6315 14.6615 24.8823 15.1327C25.1407 15.6039 25.4903 15.9687 25.9311 16.2271C26.3795 16.4779 26.8811 16.6033 27.4359 16.6033C28.2111 16.6033 28.8495 16.3715 29.3511 15.9079C29.8527 15.4443 30.1453 14.8173 30.2289 14.0269H27.0597V13.1833H31.3347V13.9813C31.2739 14.6349 31.0687 15.2353 30.7191 15.7825C30.3695 16.3221 29.9097 16.7515 29.3397 17.0707C28.7697 17.3823 28.1351 17.5381 27.4359 17.5381C26.6987 17.5381 26.0261 17.3671 25.4181 17.0251C24.8101 16.6755 24.3275 16.1929 23.9703 15.5773C23.6207 14.9617 23.4459 14.2663 23.4459 13.4911C23.4459 12.7159 23.6207 12.0205 23.9703 11.4049C24.3275 10.7817 24.8101 10.2991 25.4181 9.95713C26.0261 9.60753 26.6987 9.43273 27.4359 9.43273C28.2795 9.43273 29.0243 9.64173 29.6703 10.0597C30.3239 10.4777 30.7989 11.0667 31.0953 11.8267H29.8527ZM38.4064 14.1067C38.4064 14.3043 38.395 14.5133 38.3722 14.7337H33.379C33.417 15.3493 33.626 15.8319 34.006 16.1815C34.3936 16.5235 34.861 16.6945 35.4082 16.6945C35.8566 16.6945 36.229 16.5919 36.5254 16.3867C36.8294 16.1739 37.0422 15.8927 37.1638 15.5431H38.281C38.1138 16.1435 37.7794 16.6337 37.2778 17.0137C36.7762 17.3861 36.153 17.5723 35.4082 17.5723C34.8154 17.5723 34.2834 17.4393 33.8122 17.1733C33.3486 16.9073 32.9838 16.5311 32.7178 16.0447C32.4518 15.5507 32.3188 14.9807 32.3188 14.3347C32.3188 13.6887 32.448 13.1225 32.7064 12.6361C32.9648 12.1497 33.3258 11.7773 33.7894 11.5189C34.2606 11.2529 34.8002 11.1199 35.4082 11.1199C36.001 11.1199 36.5254 11.2491 36.9814 11.5075C37.4374 11.7659 37.787 12.1231 38.0302 12.5791C38.281 13.0275 38.4064 13.5367 38.4064 14.1067ZM37.3348 13.8901C37.3348 13.4949 37.2474 13.1567 37.0726 12.8755C36.8978 12.5867 36.6584 12.3701 36.3544 12.2257C36.058 12.0737 35.7274 11.9977 35.3626 11.9977C34.8382 11.9977 34.3898 12.1649 34.0174 12.4993C33.6526 12.8337 33.4436 13.2973 33.3904 13.8901H37.3348ZM42.8195 11.1085C43.5795 11.1085 44.1951 11.3403 44.6663 11.8039C45.1375 12.2599 45.3731 12.9211 45.3731 13.7875V17.4697H44.3471V13.9357C44.3471 13.3125 44.1913 12.8375 43.8797 12.5107C43.5681 12.1763 43.1425 12.0091 42.6029 12.0091C42.0557 12.0091 41.6187 12.1801 41.2919 12.5221C40.9727 12.8641 40.8131 13.3619 40.8131 14.0155V17.4697H39.7757V11.2225H40.8131V12.1117C41.0183 11.7925 41.2957 11.5455 41.6453 11.3707C42.0025 11.1959 42.3939 11.1085 42.8195 11.1085ZM52.7677 14.1067C52.7677 14.3043 52.7563 14.5133 52.7335 14.7337H47.7403C47.7783 15.3493 47.9873 15.8319 48.3673 16.1815C48.7549 16.5235 49.2223 16.6945 49.7695 16.6945C50.2179 16.6945 50.5903 16.5919 50.8867 16.3867C51.1907 16.1739 51.4035 15.8927 51.5251 15.5431H52.6423C52.4751 16.1435 52.1407 16.6337 51.6391 17.0137C51.1375 17.3861 50.5143 17.5723 49.7695 17.5723C49.1767 17.5723 48.6447 17.4393 48.1735 17.1733C47.7099 16.9073 47.3451 16.5311 47.0791 16.0447C46.8131 15.5507 46.6801 14.9807 46.6801 14.3347C46.6801 13.6887 46.8093 13.1225 47.0677 12.6361C47.3261 12.1497 47.6871 11.7773 48.1507 11.5189C48.6219 11.2529 49.1615 11.1199 49.7695 11.1199C50.3623 11.1199 50.8867 11.2491 51.3427 11.5075C51.7987 11.7659 52.1483 12.1231 52.3915 12.5791C52.6423 13.0275 52.7677 13.5367 52.7677 14.1067ZM51.6961 13.8901C51.6961 13.4949 51.6087 13.1567 51.4339 12.8755C51.2591 12.5867 51.0197 12.3701 50.7157 12.2257C50.4193 12.0737 50.0887 11.9977 49.7239 11.9977C49.1995 11.9977 48.7511 12.1649 48.3787 12.4993C48.0139 12.8337 47.8049 13.2973 47.7517 13.8901H51.6961ZM55.1744 12.2371C55.3568 11.8799 55.6152 11.6025 55.9496 11.4049C56.2916 11.2073 56.7058 11.1085 57.1922 11.1085V12.1801H56.9186C55.7558 12.1801 55.1744 12.8109 55.1744 14.0725V17.4697H54.137V11.2225H55.1744V12.2371ZM58.0022 14.3233C58.0022 13.6849 58.1314 13.1263 58.3898 12.6475C58.6482 12.1611 59.0016 11.7849 59.45 11.5189C59.906 11.2529 60.4114 11.1199 60.9662 11.1199C61.5134 11.1199 61.9884 11.2377 62.3912 11.4733C62.794 11.7089 63.0942 12.0053 63.2918 12.3625V11.2225H64.3406V17.4697H63.2918V16.3069C63.0866 16.6717 62.7788 16.9757 62.3684 17.2189C61.9656 17.4545 61.4944 17.5723 60.9548 17.5723C60.4 17.5723 59.8984 17.4355 59.45 17.1619C59.0016 16.8883 58.6482 16.5045 58.3898 16.0105C58.1314 15.5165 58.0022 14.9541 58.0022 14.3233ZM63.2918 14.3347C63.2918 13.8635 63.1968 13.4531 63.0068 13.1035C62.8168 12.7539 62.5584 12.4879 62.2316 12.3055C61.9124 12.1155 61.559 12.0205 61.1714 12.0205C60.7838 12.0205 60.4304 12.1117 60.1112 12.2941C59.792 12.4765 59.5374 12.7425 59.3474 13.0921C59.1574 13.4417 59.0624 13.8521 59.0624 14.3233C59.0624 14.8021 59.1574 15.2201 59.3474 15.5773C59.5374 15.9269 59.792 16.1967 60.1112 16.3867C60.4304 16.5691 60.7838 16.6603 61.1714 16.6603C61.559 16.6603 61.9124 16.5691 62.2316 16.3867C62.5584 16.1967 62.8168 15.9269 63.0068 15.5773C63.1968 15.2201 63.2918 14.8059 63.2918 14.3347ZM67.3591 12.0775V15.7597C67.3591 16.0637 67.4237 16.2803 67.5529 16.4095C67.6821 16.5311 67.9063 16.5919 68.2255 16.5919H68.9893V17.4697H68.0545C67.4769 17.4697 67.0437 17.3367 66.7549 17.0707C66.4661 16.8047 66.3217 16.3677 66.3217 15.7597V12.0775H65.5123V11.2225H66.3217V9.64933H67.3591V11.2225H68.9893V12.0775H67.3591ZM75.9462 14.1067C75.9462 14.3043 75.9348 14.5133 75.912 14.7337H70.9188C70.9568 15.3493 71.1658 15.8319 71.5458 16.1815C71.9334 16.5235 72.4008 16.6945 72.948 16.6945C73.3964 16.6945 73.7688 16.5919 74.0652 16.3867C74.3692 16.1739 74.582 15.8927 74.7036 15.5431H75.8208C75.6536 16.1435 75.3192 16.6337 74.8176 17.0137C74.316 17.3861 73.6928 17.5723 72.948 17.5723C72.3552 17.5723 71.8232 17.4393 71.352 17.1733C70.8884 16.9073 70.5236 16.5311 70.2576 16.0447C69.9916 15.5507 69.8586 14.9807 69.8586 14.3347C69.8586 13.6887 69.9878 13.1225 70.2462 12.6361C70.5046 12.1497 70.8656 11.7773 71.3292 11.5189C71.8004 11.2529 72.34 11.1199 72.948 11.1199C73.5408 11.1199 74.0652 11.2491 74.5212 11.5075C74.9772 11.7659 75.3268 12.1231 75.57 12.5791C75.8208 13.0275 75.9462 13.5367 75.9462 14.1067ZM74.8746 13.8901C74.8746 13.4949 74.7872 13.1567 74.6124 12.8755C74.4376 12.5867 74.1982 12.3701 73.8942 12.2257C73.5978 12.0737 73.2672 11.9977 72.9024 11.9977C72.378 11.9977 71.9296 12.1649 71.5572 12.4993C71.1924 12.8337 70.9834 13.2973 70.9302 13.8901H74.8746ZM84.5386 17.4697L82.6462 14.2207H81.3922V17.4697H80.3548V9.52393H82.9198C83.5202 9.52393 84.0256 9.62653 84.436 9.83173C84.854 10.0369 85.1656 10.3143 85.3708 10.6639C85.576 11.0135 85.6786 11.4125 85.6786 11.8609C85.6786 12.4081 85.519 12.8907 85.1998 13.3087C84.8882 13.7267 84.417 14.0041 83.7862 14.1409L85.7812 17.4697H84.5386ZM81.3922 13.3885H82.9198C83.4822 13.3885 83.904 13.2517 84.1852 12.9781C84.4664 12.6969 84.607 12.3245 84.607 11.8609C84.607 11.3897 84.4664 11.0249 84.1852 10.7665C83.9116 10.5081 83.4898 10.3789 82.9198 10.3789H81.3922V13.3885ZM92.9906 14.1067C92.9906 14.3043 92.9792 14.5133 92.9564 14.7337H87.9632C88.0012 15.3493 88.2102 15.8319 88.5902 16.1815C88.9778 16.5235 89.4452 16.6945 89.9924 16.6945C90.4408 16.6945 90.8132 16.5919 91.1096 16.3867C91.4136 16.1739 91.6264 15.8927 91.748 15.5431H92.8652C92.698 16.1435 92.3636 16.6337 91.862 17.0137C91.3604 17.3861 90.7372 17.5723 89.9924 17.5723C89.3996 17.5723 88.8676 17.4393 88.3964 17.1733C87.9328 16.9073 87.568 16.5311 87.302 16.0447C87.036 15.5507 86.903 14.9807 86.903 14.3347C86.903 13.6887 87.0322 13.1225 87.2906 12.6361C87.549 12.1497 87.91 11.7773 88.3736 11.5189C88.8448 11.2529 89.3844 11.1199 89.9924 11.1199C90.5852 11.1199 91.1096 11.2491 91.5656 11.5075C92.0216 11.7659 92.3712 12.1231 92.6144 12.5791C92.8652 13.0275 92.9906 13.5367 92.9906 14.1067ZM91.919 13.8901C91.919 13.4949 91.8316 13.1567 91.6568 12.8755C91.482 12.5867 91.2426 12.3701 90.9386 12.2257C90.6422 12.0737 90.3116 11.9977 89.9468 11.9977C89.4224 11.9977 88.974 12.1649 88.6016 12.4993C88.2368 12.8337 88.0278 13.2973 87.9746 13.8901H91.919ZM95.3973 12.3739C95.6025 12.0167 95.9065 11.7203 96.3093 11.4847C96.7197 11.2415 97.1947 11.1199 97.7343 11.1199C98.2891 11.1199 98.7907 11.2529 99.2391 11.5189C99.6951 11.7849 100.052 12.1611 100.311 12.6475C100.569 13.1263 100.698 13.6849 100.698 14.3233C100.698 14.9541 100.569 15.5165 100.311 16.0105C100.052 16.5045 99.6951 16.8883 99.2391 17.1619C98.7907 17.4355 98.2891 17.5723 97.7343 17.5723C97.2023 17.5723 96.7311 17.4545 96.3207 17.2189C95.9179 16.9757 95.6101 16.6755 95.3973 16.3183V20.4337H94.3599V11.2225H95.3973V12.3739ZM99.6381 14.3233C99.6381 13.8521 99.5431 13.4417 99.3531 13.0921C99.1631 12.7425 98.9047 12.4765 98.5779 12.2941C98.2587 12.1117 97.9053 12.0205 97.5177 12.0205C97.1377 12.0205 96.7843 12.1155 96.4575 12.3055C96.1383 12.4879 95.8799 12.7577 95.6823 13.1149C95.4923 13.4645 95.3973 13.8711 95.3973 14.3347C95.3973 14.8059 95.4923 15.2201 95.6823 15.5773C95.8799 15.9269 96.1383 16.1967 96.4575 16.3867C96.7843 16.5691 97.1377 16.6603 97.5177 16.6603C97.9053 16.6603 98.2587 16.5691 98.5779 16.3867C98.9047 16.1967 99.1631 15.9269 99.3531 15.5773C99.5431 15.2201 99.6381 14.8021 99.6381 14.3233ZM104.788 17.5723C104.203 17.5723 103.671 17.4393 103.192 17.1733C102.721 16.9073 102.349 16.5311 102.075 16.0447C101.809 15.5507 101.676 14.9807 101.676 14.3347C101.676 13.6963 101.813 13.1339 102.087 12.6475C102.368 12.1535 102.748 11.7773 103.227 11.5189C103.705 11.2529 104.241 11.1199 104.834 11.1199C105.427 11.1199 105.963 11.2529 106.441 11.5189C106.92 11.7773 107.296 12.1497 107.57 12.6361C107.851 13.1225 107.992 13.6887 107.992 14.3347C107.992 14.9807 107.847 15.5507 107.559 16.0447C107.277 16.5311 106.894 16.9073 106.407 17.1733C105.921 17.4393 105.381 17.5723 104.788 17.5723ZM104.788 16.6603C105.161 16.6603 105.51 16.5729 105.837 16.3981C106.164 16.2233 106.426 15.9611 106.624 15.6115C106.829 15.2619 106.932 14.8363 106.932 14.3347C106.932 13.8331 106.833 13.4075 106.635 13.0579C106.438 12.7083 106.179 12.4499 105.86 12.2827C105.541 12.1079 105.195 12.0205 104.823 12.0205C104.443 12.0205 104.093 12.1079 103.774 12.2827C103.462 12.4499 103.211 12.7083 103.021 13.0579C102.831 13.4075 102.736 13.8331 102.736 14.3347C102.736 14.8439 102.828 15.2733 103.01 15.6229C103.2 15.9725 103.451 16.2347 103.762 16.4095C104.074 16.5767 104.416 16.6603 104.788 16.6603ZM110.393 12.2371C110.576 11.8799 110.834 11.6025 111.168 11.4049C111.51 11.2073 111.925 11.1085 112.411 11.1085V12.1801H112.137C110.975 12.1801 110.393 12.8109 110.393 14.0725V17.4697H109.356V11.2225H110.393V12.2371ZM114.874 12.0775V15.7597C114.874 16.0637 114.939 16.2803 115.068 16.4095C115.197 16.5311 115.421 16.5919 115.74 16.5919H116.504V17.4697H115.569C114.992 17.4697 114.559 17.3367 114.27 17.0707C113.981 16.8047 113.837 16.3677 113.837 15.7597V12.0775H113.027V11.2225H113.837V9.64933H114.874V11.2225H116.504V12.0775H114.874Z" fill="#0E0E0E"/>
</svg>
