<svg width="98" height="104" viewBox="0 0 98 104" fill="none" xmlns="http://www.w3.org/2000/svg">
<g filter="url(#filter0_d_7_323)">
<rect x="18" y="15" width="64" height="64" rx="32" fill="white" shape-rendering="crispEdges"/>
<path d="M50.7237 52.4211C50.7237 51.7978 50.6198 51.242 50.412 50.7537C50.2042 50.2654 49.8614 49.8291 49.3835 49.4447C48.916 49.0499 48.2823 48.6863 47.4823 48.3538C46.6928 48.011 45.7058 47.6734 44.5215 47.3409C43.3891 47.0189 42.3658 46.6656 41.4515 46.2813C40.5373 45.8969 39.753 45.4553 39.0984 44.9567C38.4543 44.458 37.9609 43.8762 37.618 43.2113C37.2752 42.536 37.1038 41.7517 37.1038 40.8582C37.1038 39.9855 37.2908 39.1908 37.6648 38.4739C38.0388 37.7571 38.5634 37.139 39.2387 36.6195C39.9244 36.1001 40.7295 35.7001 41.6541 35.4196C42.5891 35.1391 43.6124 34.9988 44.7241 34.9988C46.3136 34.9988 47.6849 35.3001 48.8381 35.9027C50.0017 36.5052 50.9003 37.3208 51.534 38.3493C52.1781 39.3674 52.5002 40.5102 52.5002 41.7776H50.5834C50.5834 40.7907 50.3497 39.9128 49.8822 39.144C49.4251 38.3649 48.7602 37.7571 47.8875 37.3208C47.0252 36.874 45.9707 36.6507 44.7241 36.6507C43.4774 36.6507 42.4281 36.8429 41.5762 37.2273C40.7347 37.6013 40.0958 38.1051 39.6594 38.7389C39.2335 39.3622 39.0205 40.0583 39.0205 40.827C39.0205 41.3673 39.1244 41.8659 39.3322 42.3231C39.54 42.7698 39.8776 43.1905 40.3451 43.5853C40.823 43.9697 41.4515 44.3333 42.2307 44.6762C43.0099 45.0086 43.9709 45.3255 45.1137 45.6267C46.3188 45.9592 47.3888 46.328 48.3238 46.7332C49.2589 47.1383 50.0484 47.6058 50.6925 48.1357C51.3366 48.6551 51.8249 49.2629 52.1574 49.9589C52.4898 50.655 52.656 51.4653 52.656 52.39C52.656 53.3146 52.4587 54.1457 52.0639 54.8833C51.6795 55.6105 51.1341 56.2287 50.4276 56.7377C49.7315 57.2468 48.9056 57.6364 47.9498 57.9065C47.0044 58.1766 45.9707 58.3117 44.8487 58.3117C43.841 58.3117 42.8385 58.1818 41.8411 57.9221C40.8438 57.6624 39.9296 57.2624 39.0984 56.7222C38.2777 56.1715 37.618 55.4651 37.1193 54.6028C36.6311 53.7405 36.3869 52.712 36.3869 51.5173H38.2881C38.2881 52.4731 38.4803 53.2782 38.8647 53.9327C39.2491 54.5872 39.7581 55.1171 40.3919 55.5222C41.036 55.9274 41.7424 56.2235 42.5112 56.4105C43.2904 56.5871 44.0696 56.6754 44.8487 56.6754C46.0435 56.6754 47.0772 56.4988 47.9498 56.1456C48.8329 55.7923 49.5134 55.2989 49.9913 54.6651C50.4796 54.021 50.7237 53.273 50.7237 52.4211Z" fill="black"/>
<path d="M54.8331 58V57.0691H56.2776V36.4614H54.8331V35.5306H60.627V36.4614H59.1505V57.0691H60.4184C60.8785 57.0691 61.2476 56.914 61.5258 56.6037C61.8147 56.2934 62.0287 55.844 62.1678 55.2555C62.3069 54.6563 62.3764 53.9288 62.3764 53.0728H63.3073V58H54.8331Z" fill="#84484F"/>
</g>
<defs>
<filter id="filter0_d_7_323" x="-6" y="0" width="104" height="104" filterUnits="userSpaceOnUse" color-interpolation-filters="sRGB">
<feFlood flood-opacity="0" result="BackgroundImageFix"/>
<feColorMatrix in="SourceAlpha" type="matrix" values="0 0 0 0 0 0 0 0 0 0 0 0 0 0 0 0 0 0 127 0" result="hardAlpha"/>
<feOffset dx="-4" dy="5"/>
<feGaussianBlur stdDeviation="10"/>
<feComposite in2="hardAlpha" operator="out"/>
<feColorMatrix type="matrix" values="0 0 0 0 0 0 0 0 0 0 0 0 0 0 0 0 0 0 0.15 0"/>
<feBlend mode="normal" in2="BackgroundImageFix" result="effect1_dropShadow_7_323"/>
<feBlend mode="normal" in="SourceGraphic" in2="effect1_dropShadow_7_323" result="shape"/>
</filter>
</defs>
</svg>
