<svg width="89" height="120" viewBox="0 0 89 120" fill="none" xmlns="http://www.w3.org/2000/svg">
<path d="M26.1876 74.2593C23.6223 74.2593 21.0104 73.9328 18.3518 73.2799C15.6933 72.6735 13.4778 71.8573 11.7054 70.8312L12.0552 61.3163H12.7548L14.9237 65.8638C15.5766 67.1698 16.2763 68.3358 17.0225 69.3619C17.7688 70.3414 18.7949 71.111 20.1009 71.6707C21.0337 72.1371 21.9199 72.4636 22.7595 72.6502C23.6457 72.7901 24.6251 72.8601 25.6979 72.8601C28.543 72.8601 30.7818 72.0905 32.4143 70.5513C34.0934 69.0121 34.933 67.0299 34.933 64.6045C34.933 62.319 34.3733 60.5467 33.2539 59.2873C32.1345 57.9814 30.3387 56.722 27.8667 55.5094L24.9983 54.25C20.9871 52.4776 17.8388 50.4487 15.5533 48.1633C13.3145 45.8312 12.1951 42.7528 12.1951 38.9282C12.1951 36.1764 12.8947 33.7976 14.294 31.792C15.7399 29.7865 17.7222 28.2473 20.2408 27.1745C22.8061 26.1018 25.7912 25.5654 29.196 25.5654C31.668 25.5654 34.0001 25.8919 36.1923 26.5449C38.4311 27.1978 40.3667 28.084 41.9992 29.2034L41.5794 37.5989H40.8798L38.0113 32.3517C37.2184 30.7193 36.4255 29.5766 35.6326 28.9236C34.8397 28.224 33.9302 27.7342 32.904 27.4544C32.2977 27.2678 31.738 27.1512 31.2249 27.1046C30.7119 27.0113 30.0589 26.9646 29.266 26.9646C26.8873 26.9646 24.8817 27.6643 23.2492 29.0635C21.6167 30.4161 20.8005 32.2585 20.8005 34.5905C20.8005 36.9693 21.4302 38.8816 22.6895 40.3275C23.9488 41.7267 25.7912 42.9861 28.2166 44.1055L31.4348 45.5047C35.9124 47.4637 39.1307 49.5625 41.0897 51.8013C43.0486 53.9935 44.0281 56.8386 44.0281 60.3368C44.0281 64.4412 42.4656 67.7994 39.3406 70.4114C36.2622 72.9767 31.8779 74.2593 26.1876 74.2593Z" fill="white"/>
<path d="M43.7483 96.5076V95.8079L45.3575 95.1783C46.1504 94.8518 46.6868 94.432 46.9666 93.919C47.2931 93.3593 47.4564 92.613 47.4564 91.6802V55.1597C47.4564 54.2269 47.3164 53.5039 47.0366 52.9908C46.8034 52.4311 46.2437 51.9881 45.3575 51.6616L43.7483 51.0319V50.3323H77.2604L77.6802 61.1065H76.9806L73.9722 54.53C73.5524 53.6905 73.1093 53.0142 72.6429 52.5011C72.1765 51.9881 71.4768 51.7315 70.544 51.7315H57.9507V71.9507H65.4367C66.3696 71.9507 67.0692 71.7175 67.5356 71.2511C68.0487 70.738 68.4918 70.0617 68.8649 69.2222L70.2642 66.4237H70.9638V79.0169H70.2642L68.8649 76.0785C68.4451 75.2389 68.002 74.586 67.5356 74.1195C67.0692 73.6065 66.3696 73.35 65.4367 73.35H57.9507V95.1083H72.0832C73.016 95.1083 73.739 94.8751 74.252 94.4087C74.7651 93.8956 75.1849 93.196 75.5114 92.3098L78.3798 85.7333H79.0794L78.6597 96.5076H43.7483Z" fill="white"/>
<path d="M16.6687 116.063C16.2567 116.063 15.8866 115.991 15.5582 115.848C15.2358 115.699 14.9821 115.496 14.797 115.239C14.6119 114.976 14.5164 114.675 14.5104 114.334H15.3791C15.409 114.627 15.5284 114.875 15.7373 115.078C15.9522 115.275 16.2627 115.373 16.6687 115.373C17.0567 115.373 17.3612 115.278 17.5821 115.087C17.8089 114.89 17.9224 114.639 17.9224 114.334C17.9224 114.096 17.8567 113.901 17.7254 113.752C17.594 113.603 17.4298 113.49 17.2328 113.412C17.0358 113.334 16.7701 113.251 16.4358 113.161C16.0239 113.054 15.6925 112.946 15.4418 112.839C15.197 112.731 14.9851 112.564 14.806 112.337C14.6328 112.104 14.5463 111.794 14.5463 111.406C14.5463 111.066 14.6328 110.764 14.806 110.502C14.9791 110.239 15.2209 110.036 15.5313 109.893C15.8478 109.749 16.209 109.678 16.6149 109.678C17.2 109.678 17.6776 109.824 18.0478 110.116C18.4239 110.409 18.6358 110.797 18.6836 111.281H17.7881C17.7582 111.042 17.6328 110.833 17.4119 110.654C17.191 110.469 16.8985 110.376 16.5343 110.376C16.194 110.376 15.9164 110.466 15.7015 110.645C15.4866 110.818 15.3791 111.063 15.3791 111.379C15.3791 111.606 15.4418 111.791 15.5672 111.934C15.6985 112.078 15.8567 112.188 16.0418 112.266C16.2328 112.337 16.4985 112.421 16.8388 112.516C17.2507 112.63 17.5821 112.743 17.8328 112.857C18.0836 112.964 18.2985 113.134 18.4776 113.367C18.6567 113.594 18.7463 113.904 18.7463 114.299C18.7463 114.603 18.6657 114.89 18.5045 115.158C18.3433 115.427 18.1045 115.645 17.7881 115.812C17.4716 115.979 17.0985 116.063 16.6687 116.063ZM19.641 113.537C19.641 113.03 19.7425 112.588 19.9455 112.212C20.1485 111.83 20.4291 111.534 20.7873 111.325C21.1515 111.116 21.5664 111.012 22.0321 111.012C22.635 111.012 23.1306 111.158 23.5186 111.451C23.9126 111.743 24.1723 112.149 24.2977 112.669H23.4201C23.3365 112.37 23.1723 112.134 22.9276 111.961C22.6888 111.788 22.3903 111.701 22.0321 111.701C21.5664 111.701 21.1903 111.863 20.9037 112.185C20.6171 112.501 20.4738 112.952 20.4738 113.537C20.4738 114.128 20.6171 114.585 20.9037 114.907C21.1903 115.23 21.5664 115.391 22.0321 115.391C22.3903 115.391 22.6888 115.307 22.9276 115.14C23.1664 114.973 23.3306 114.734 23.4201 114.424H24.2977C24.1664 114.925 23.9037 115.328 23.5097 115.633C23.1156 115.931 22.6231 116.081 22.0321 116.081C21.5664 116.081 21.1515 115.976 20.7873 115.767C20.4291 115.558 20.1485 115.263 19.9455 114.881C19.7425 114.499 19.641 114.051 19.641 113.537ZM27.8209 111.003C28.191 111.003 28.5254 111.084 28.8239 111.245C29.1224 111.4 29.3552 111.636 29.5224 111.952C29.6955 112.269 29.7821 112.654 29.7821 113.107V116H28.9761V113.224C28.9761 112.734 28.8537 112.361 28.609 112.104C28.3642 111.842 28.0299 111.71 27.606 111.71C27.1761 111.71 26.8328 111.845 26.5761 112.113C26.3254 112.382 26.2 112.773 26.2 113.287V116H25.3851V109.373H26.2V111.791C26.3612 111.54 26.5821 111.346 26.8627 111.209C27.1493 111.072 27.4687 111.003 27.8209 111.003ZM33.2536 116.081C32.7939 116.081 32.3759 115.976 31.9998 115.767C31.6297 115.558 31.3371 115.263 31.1222 114.881C30.9133 114.493 30.8088 114.045 30.8088 113.537C30.8088 113.036 30.9163 112.594 31.1312 112.212C31.3521 111.824 31.6506 111.528 32.0267 111.325C32.4028 111.116 32.8237 111.012 33.2894 111.012C33.7551 111.012 34.1759 111.116 34.5521 111.325C34.9282 111.528 35.2237 111.821 35.4386 112.203C35.6595 112.585 35.77 113.03 35.77 113.537C35.77 114.045 35.6565 114.493 35.4297 114.881C35.2088 115.263 34.9073 115.558 34.5252 115.767C34.1431 115.976 33.7192 116.081 33.2536 116.081ZM33.2536 115.364C33.5461 115.364 33.8207 115.296 34.0774 115.158C34.3342 115.021 34.5401 114.815 34.6953 114.54C34.8565 114.266 34.9371 113.931 34.9371 113.537C34.9371 113.143 34.8595 112.809 34.7043 112.534C34.5491 112.26 34.3461 112.057 34.0953 111.925C33.8446 111.788 33.573 111.719 33.2804 111.719C32.9819 111.719 32.7073 111.788 32.4565 111.925C32.2118 112.057 32.0148 112.26 31.8655 112.534C31.7162 112.809 31.6416 113.143 31.6416 113.537C31.6416 113.937 31.7133 114.275 31.8565 114.549C32.0058 114.824 32.2028 115.03 32.4476 115.167C32.6924 115.299 32.961 115.364 33.2536 115.364ZM38.9817 116.081C38.522 116.081 38.1041 115.976 37.728 115.767C37.3579 115.558 37.0653 115.263 36.8504 114.881C36.6414 114.493 36.537 114.045 36.537 113.537C36.537 113.036 36.6444 112.594 36.8594 112.212C37.0803 111.824 37.3788 111.528 37.7549 111.325C38.131 111.116 38.5519 111.012 39.0176 111.012C39.4832 111.012 39.9041 111.116 40.2802 111.325C40.6564 111.528 40.9519 111.821 41.1668 112.203C41.3877 112.585 41.4982 113.03 41.4982 113.537C41.4982 114.045 41.3847 114.493 41.1579 114.881C40.937 115.263 40.6355 115.558 40.2534 115.767C39.8713 115.976 39.4474 116.081 38.9817 116.081ZM38.9817 115.364C39.2743 115.364 39.5489 115.296 39.8056 115.158C40.0623 115.021 40.2683 114.815 40.4235 114.54C40.5847 114.266 40.6653 113.931 40.6653 113.537C40.6653 113.143 40.5877 112.809 40.4325 112.534C40.2773 112.26 40.0743 112.057 39.8235 111.925C39.5728 111.788 39.3011 111.719 39.0086 111.719C38.7101 111.719 38.4355 111.788 38.1847 111.925C37.94 112.057 37.7429 112.26 37.5937 112.534C37.4444 112.809 37.3698 113.143 37.3698 113.537C37.3698 113.937 37.4414 114.275 37.5847 114.549C37.734 114.824 37.931 115.03 38.1758 115.167C38.4206 115.299 38.6892 115.364 38.9817 115.364ZM43.3846 109.373V116H42.5696V109.373H43.3846ZM47.9759 110.421V112.507H50.2505V113.179H47.9759V115.328H50.5191V116H47.1609V109.749H50.5191V110.421H47.9759ZM54.3134 116L53.1492 114.173L52.0298 116H51.1791L52.7642 113.564L51.1791 111.093H52.1015L53.2657 112.91L54.3761 111.093H55.2268L53.6507 113.519L55.2358 116H54.3134ZM56.8524 111.997C57.0135 111.716 57.2524 111.484 57.5688 111.299C57.8912 111.107 58.2643 111.012 58.6882 111.012C59.124 111.012 59.518 111.116 59.8703 111.325C60.2285 111.534 60.5091 111.83 60.712 112.212C60.915 112.588 61.0165 113.027 61.0165 113.528C61.0165 114.024 60.915 114.466 60.712 114.854C60.5091 115.242 60.2285 115.543 59.8703 115.758C59.518 115.973 59.124 116.081 58.6882 116.081C58.2703 116.081 57.9001 115.988 57.5777 115.803C57.2613 115.612 57.0195 115.376 56.8524 115.096V118.328H56.0374V111.093H56.8524V111.997ZM60.1837 113.528C60.1837 113.158 60.1091 112.836 59.9598 112.561C59.8106 112.287 59.6076 112.078 59.3509 111.934C59.1001 111.791 58.8225 111.719 58.518 111.719C58.2195 111.719 57.9419 111.794 57.6852 111.943C57.4344 112.087 57.2315 112.299 57.0762 112.579C56.927 112.854 56.8524 113.173 56.8524 113.537C56.8524 113.907 56.927 114.233 57.0762 114.513C57.2315 114.788 57.4344 115 57.6852 115.149C57.9419 115.293 58.2195 115.364 58.518 115.364C58.8225 115.364 59.1001 115.293 59.3509 115.149C59.6076 115 59.8106 114.788 59.9598 114.513C60.1091 114.233 60.1837 113.904 60.1837 113.528ZM62.9041 111.89C63.0474 111.609 63.2504 111.391 63.5131 111.236C63.7817 111.081 64.1071 111.003 64.4892 111.003V111.845H64.2743C63.3608 111.845 62.9041 112.34 62.9041 113.331V116H62.0892V111.093H62.9041V111.89ZM69.9075 113.358C69.9075 113.513 69.8986 113.678 69.8806 113.851H65.9583C65.9881 114.334 66.1523 114.713 66.4508 114.988C66.7553 115.257 67.1224 115.391 67.5523 115.391C67.9045 115.391 68.1971 115.31 68.4299 115.149C68.6687 114.982 68.8359 114.761 68.9314 114.487H69.809C69.6777 114.958 69.415 115.343 69.0209 115.642C68.6269 115.934 68.1374 116.081 67.5523 116.081C67.0866 116.081 66.6687 115.976 66.2986 115.767C65.9344 115.558 65.6478 115.263 65.4389 114.881C65.2299 114.493 65.1254 114.045 65.1254 113.537C65.1254 113.03 65.2269 112.585 65.4299 112.203C65.6329 111.821 65.9165 111.528 66.2806 111.325C66.6508 111.116 67.0747 111.012 67.5523 111.012C68.018 111.012 68.4299 111.113 68.7881 111.316C69.1463 111.519 69.4209 111.8 69.612 112.158C69.809 112.51 69.9075 112.91 69.9075 113.358ZM69.0657 113.188C69.0657 112.878 68.9971 112.612 68.8597 112.391C68.7224 112.164 68.5344 111.994 68.2956 111.881C68.0627 111.761 67.803 111.701 67.5165 111.701C67.1045 111.701 66.7523 111.833 66.4598 112.096C66.1732 112.358 66.009 112.722 65.9672 113.188H69.0657ZM72.7205 116.081C72.3444 116.081 72.0071 116.018 71.7086 115.893C71.41 115.761 71.1742 115.582 71.0011 115.355C70.828 115.122 70.7324 114.857 70.7145 114.558H71.5563C71.5802 114.803 71.6936 115.003 71.8966 115.158C72.1056 115.313 72.3772 115.391 72.7115 115.391C73.022 115.391 73.2668 115.322 73.4459 115.185C73.625 115.048 73.7145 114.875 73.7145 114.666C73.7145 114.451 73.619 114.293 73.428 114.191C73.2369 114.084 72.9414 113.979 72.5414 113.878C72.1772 113.782 71.8787 113.687 71.6459 113.591C71.419 113.49 71.222 113.343 71.0548 113.152C70.8936 112.955 70.813 112.699 70.813 112.382C70.813 112.131 70.8877 111.901 71.0369 111.693C71.1862 111.484 71.3981 111.319 71.6727 111.2C71.9474 111.075 72.2608 111.012 72.613 111.012C73.1563 111.012 73.5951 111.149 73.9294 111.424C74.2638 111.699 74.4429 112.075 74.4668 112.552H73.6518C73.6339 112.296 73.5294 112.09 73.3384 111.934C73.1533 111.779 72.9026 111.701 72.5862 111.701C72.2936 111.701 72.0608 111.764 71.8877 111.89C71.7145 112.015 71.628 112.179 71.628 112.382C71.628 112.543 71.6787 112.678 71.7802 112.785C71.8877 112.887 72.019 112.97 72.1742 113.036C72.3354 113.096 72.5563 113.164 72.8369 113.242C73.1892 113.337 73.4757 113.433 73.6966 113.528C73.9175 113.618 74.1056 113.755 74.2608 113.94C74.422 114.125 74.5056 114.367 74.5115 114.666C74.5115 114.934 74.4369 115.176 74.2877 115.391C74.1384 115.606 73.9265 115.776 73.6518 115.901C73.3832 116.021 73.0727 116.081 72.7205 116.081ZM77.3992 116.081C77.0231 116.081 76.6858 116.018 76.3873 115.893C76.0888 115.761 75.853 115.582 75.6798 115.355C75.5067 115.122 75.4112 114.857 75.3933 114.558H76.2351C76.2589 114.803 76.3724 115.003 76.5754 115.158C76.7843 115.313 77.056 115.391 77.3903 115.391C77.7007 115.391 77.9455 115.322 78.1246 115.185C78.3037 115.048 78.3933 114.875 78.3933 114.666C78.3933 114.451 78.2977 114.293 78.1067 114.191C77.9157 114.084 77.6201 113.979 77.2201 113.878C76.856 113.782 76.5574 113.687 76.3246 113.591C76.0977 113.49 75.9007 113.343 75.7336 113.152C75.5724 112.955 75.4918 112.699 75.4918 112.382C75.4918 112.131 75.5664 111.901 75.7157 111.693C75.8649 111.484 76.0769 111.319 76.3515 111.2C76.6261 111.075 76.9395 111.012 77.2918 111.012C77.8351 111.012 78.2739 111.149 78.6082 111.424C78.9425 111.699 79.1216 112.075 79.1455 112.552H78.3306C78.3127 112.296 78.2082 112.09 78.0171 111.934C77.8321 111.779 77.5813 111.701 77.2649 111.701C76.9724 111.701 76.7395 111.764 76.5664 111.89C76.3933 112.015 76.3067 112.179 76.3067 112.382C76.3067 112.543 76.3575 112.678 76.4589 112.785C76.5664 112.887 76.6977 112.97 76.853 113.036C77.0142 113.096 77.2351 113.164 77.5157 113.242C77.8679 113.337 78.1545 113.433 78.3754 113.528C78.5963 113.618 78.7843 113.755 78.9395 113.94C79.1007 114.125 79.1843 114.367 79.1903 114.666C79.1903 114.934 79.1157 115.176 78.9664 115.391C78.8171 115.606 78.6052 115.776 78.3306 115.901C78.0619 116.021 77.7515 116.081 77.3992 116.081Z" fill="white"/>
<circle cx="44.9004" cy="60.8675" r="2.2388" fill="white" fill-opacity="0.2"/>
<circle cx="44.9" cy="52.4721" r="1.95895" fill="white" fill-opacity="0.2"/>
<circle cx="44.9006" cy="44.4965" r="1.81903" fill="white" fill-opacity="0.2"/>
<circle cx="44.9004" cy="36.8002" r="1.6791" fill="white" fill-opacity="0.2"/>
<circle cx="44.9002" cy="29.3839" r="1.53918" fill="white" fill-opacity="0.2"/>
<circle cx="44.9007" cy="22.2481" r="1.39925" fill="white" fill-opacity="0.2"/>
<circle cx="44.9006" cy="15.3917" r="1.25933" fill="white" fill-opacity="0.2"/>
<circle cx="1.95895" cy="1.95895" r="1.95895" transform="matrix(1 0 0 -1 42.941 71.2217)" fill="white" fill-opacity="0.2"/>
<circle cx="1.81903" cy="1.81903" r="1.81903" transform="matrix(1 0 0 -1 43.0815 79.0576)" fill="white" fill-opacity="0.2"/>
<circle cx="1.6791" cy="1.6791" r="1.6791" transform="matrix(1 0 0 -1 43.2213 86.614)" fill="white" fill-opacity="0.2"/>
<circle cx="1.53918" cy="1.53918" r="1.53918" transform="matrix(1 0 0 -1 43.361 93.8901)" fill="white" fill-opacity="0.2"/>
<circle cx="1.39925" cy="1.39925" r="1.39925" transform="matrix(1 0 0 -1 43.5015 100.886)" fill="white" fill-opacity="0.2"/>
<circle cx="1.25933" cy="1.25933" r="1.25933" transform="matrix(1 0 0 -1 43.6412 107.603)" fill="white" fill-opacity="0.2"/>
<circle cx="53.4096" cy="60.8674" r="2.07297" fill="white" fill-opacity="0.2"/>
<circle cx="53.4098" cy="53.0936" r="1.81384" fill="white" fill-opacity="0.2"/>
<circle cx="53.4099" cy="45.7087" r="1.68428" fill="white" fill-opacity="0.2"/>
<circle cx="53.41" cy="38.5833" r="1.55472" fill="white" fill-opacity="0.2"/>
<circle cx="53.4101" cy="31.7162" r="1.42516" fill="white" fill-opacity="0.2"/>
<circle cx="53.4102" cy="25.1086" r="1.2956" fill="white" fill-opacity="0.2"/>
<circle cx="53.4103" cy="18.7603" r="1.16604" fill="white" fill-opacity="0.2"/>
<circle cx="53.4098" cy="12.8005" r="0.906922" fill="white" fill-opacity="0.2"/>
<circle cx="1.81384" cy="1.81384" r="1.81384" transform="matrix(1 0 0 -1 51.5959 70.4553)" fill="white" fill-opacity="0.2"/>
<circle cx="1.68428" cy="1.68428" r="1.68428" transform="matrix(1 0 0 -1 51.7256 77.7104)" fill="white" fill-opacity="0.2"/>
<circle cx="1.55472" cy="1.55472" r="1.55472" transform="matrix(1 0 0 -1 51.8553 84.7065)" fill="white" fill-opacity="0.2"/>
<circle cx="1.42516" cy="1.42516" r="1.42516" transform="matrix(1 0 0 -1 51.9849 91.4438)" fill="white" fill-opacity="0.2"/>
<circle cx="1.2956" cy="1.2956" r="1.2956" transform="matrix(1 0 0 -1 52.1146 97.9219)" fill="white" fill-opacity="0.2"/>
<circle cx="1.16604" cy="1.16604" r="1.16604" transform="matrix(1 0 0 -1 52.2443 104.141)" fill="white" fill-opacity="0.2"/>
<circle cx="61.9373" cy="60.8675" r="1.9249" fill="white" fill-opacity="0.2"/>
<circle cx="61.9373" cy="53.6491" r="1.68428" fill="white" fill-opacity="0.2"/>
<circle cx="61.9373" cy="46.7913" r="1.56398" fill="white" fill-opacity="0.2"/>
<circle cx="61.9373" cy="40.1751" r="1.44367" fill="white" fill-opacity="0.2"/>
<circle cx="61.9373" cy="33.7985" r="1.32337" fill="white" fill-opacity="0.2"/>
<circle cx="61.9373" cy="27.6628" r="1.20306" fill="white" fill-opacity="0.2"/>
<circle cx="61.9372" cy="21.7681" r="1.08275" fill="white" fill-opacity="0.2"/>
<circle cx="61.9372" cy="16.2337" r="0.842142" fill="white" fill-opacity="0.2"/>
<circle cx="1.68428" cy="1.68428" r="1.68428" transform="matrix(1 0 0 -1 60.2531 69.7703)" fill="white" fill-opacity="0.2"/>
<circle cx="1.56398" cy="1.56398" r="1.56398" transform="matrix(1 0 0 -1 60.3734 76.5076)" fill="white" fill-opacity="0.2"/>
<circle cx="1.44367" cy="1.44367" r="1.44367" transform="matrix(1 0 0 -1 60.4937 83.0037)" fill="white" fill-opacity="0.2"/>
<circle cx="1.32337" cy="1.32337" r="1.32337" transform="matrix(1 0 0 -1 60.614 89.2598)" fill="white" fill-opacity="0.2"/>
<circle cx="1.20306" cy="1.20306" r="1.20306" transform="matrix(1 0 0 -1 60.7343 95.2754)" fill="white" fill-opacity="0.2"/>
<circle cx="1.08275" cy="1.08275" r="1.08275" transform="matrix(1 0 0 -1 60.8545 101.05)" fill="white" fill-opacity="0.2"/>
<circle cx="70.4643" cy="60.8672" r="1.77683" fill="white" fill-opacity="0.2"/>
<ellipse cx="70.4648" cy="54.2046" rx="1.55472" ry="1.55472" fill="white" fill-opacity="0.2"/>
<circle cx="70.4647" cy="47.8748" r="1.44367" fill="white" fill-opacity="0.2"/>
<circle cx="70.4646" cy="41.7669" r="1.33262" fill="white" fill-opacity="0.2"/>
<circle cx="70.4645" cy="35.8807" r="1.22157" fill="white" fill-opacity="0.2"/>
<circle cx="70.4643" cy="30.2175" r="1.11052" fill="white" fill-opacity="0.2"/>
<circle cx="70.4642" cy="24.7758" r="0.999465" fill="white" fill-opacity="0.2"/>
<ellipse cx="70.4647" cy="19.6675" rx="0.777362" ry="0.777362" fill="white" fill-opacity="0.2"/>
<ellipse cx="1.55472" cy="1.55472" rx="1.55472" ry="1.55472" transform="matrix(1 0 0 -1 68.9101 69.0852)" fill="white" fill-opacity="0.2"/>
<circle cx="1.44367" cy="1.44367" r="1.44367" transform="matrix(1 0 0 -1 69.0211 75.3044)" fill="white" fill-opacity="0.2"/>
<circle cx="1.33262" cy="1.33262" r="1.33262" transform="matrix(1 0 0 -1 69.132 81.3008)" fill="white" fill-opacity="0.2"/>
<circle cx="1.22157" cy="1.22157" r="1.22157" transform="matrix(1 0 0 -1 69.2429 87.0757)" fill="white" fill-opacity="0.2"/>
<circle cx="1.11052" cy="1.11052" r="1.11052" transform="matrix(1 0 0 -1 69.3538 92.6279)" fill="white" fill-opacity="0.2"/>
<circle cx="0.999465" cy="0.999465" r="0.999465" transform="matrix(1 0 0 -1 69.4648 97.9585)" fill="white" fill-opacity="0.2"/>
<circle cx="78.9914" cy="60.8675" r="1.62876" fill="white" fill-opacity="0.2"/>
<circle cx="78.9916" cy="54.7594" r="1.42516" fill="white" fill-opacity="0.2"/>
<circle cx="78.9921" cy="48.9574" r="1.32337" fill="white" fill-opacity="0.2"/>
<circle cx="78.9919" cy="43.358" r="1.22157" fill="white" fill-opacity="0.2"/>
<circle cx="78.9917" cy="37.963" r="1.11977" fill="white" fill-opacity="0.2"/>
<ellipse cx="78.9922" cy="32.7714" rx="1.01797" ry="1.01797" fill="white" fill-opacity="0.2"/>
<circle cx="78.9919" cy="27.7836" r="0.916177" fill="white" fill-opacity="0.2"/>
<circle cx="1.42516" cy="1.42516" r="1.42516" transform="matrix(1 0 0 -1 77.5665 68.4001)" fill="white" fill-opacity="0.2"/>
<circle cx="1.32337" cy="1.32337" r="1.32337" transform="matrix(1 0 0 -1 77.6688 74.1008)" fill="white" fill-opacity="0.2"/>
<circle cx="1.22157" cy="1.22157" r="1.22157" transform="matrix(1 0 0 -1 77.7703 79.5979)" fill="white" fill-opacity="0.2"/>
<circle cx="1.11977" cy="1.11977" r="1.11977" transform="matrix(1 0 0 -1 77.8719 84.8916)" fill="white" fill-opacity="0.2"/>
<ellipse cx="1.01797" cy="1.01797" rx="1.01797" ry="1.01797" transform="matrix(1 0 0 -1 77.9742 89.9814)" fill="white" fill-opacity="0.2"/>
<circle cx="0.916177" cy="0.916177" r="0.916177" transform="matrix(1 0 0 -1 78.0757 94.8677)" fill="white" fill-opacity="0.2"/>
<circle cx="87.5191" cy="60.8679" r="1.48069" fill="white" fill-opacity="0.2"/>
<circle cx="87.5191" cy="55.3149" r="1.2956" fill="white" fill-opacity="0.2"/>
<circle cx="87.5195" cy="50.04" r="1.20306" fill="white" fill-opacity="0.2"/>
<circle cx="87.5191" cy="44.9499" r="1.11052" fill="white" fill-opacity="0.2"/>
<circle cx="87.5196" cy="40.0453" r="1.01797" fill="white" fill-opacity="0.2"/>
<circle cx="1.2956" cy="1.2956" r="1.2956" transform="matrix(1 0 0 -1 86.2235 67.7158)" fill="white" fill-opacity="0.2"/>
<circle cx="1.20306" cy="1.20306" r="1.20306" transform="matrix(1 0 0 -1 86.3165 72.8979)" fill="white" fill-opacity="0.2"/>
<circle cx="1.11052" cy="1.11052" r="1.11052" transform="matrix(1 0 0 -1 86.4086 77.8955)" fill="white" fill-opacity="0.2"/>
<circle cx="1.01797" cy="1.01797" r="1.01797" transform="matrix(1 0 0 -1 86.5016 82.7075)" fill="white" fill-opacity="0.2"/>
<circle cx="2.07297" cy="2.07297" r="2.07297" transform="matrix(-1 0 0 1 38.454 58.7944)" fill="white" fill-opacity="0.2"/>
<circle cx="1.81384" cy="1.81384" r="1.81384" transform="matrix(-1 0 0 1 38.1947 51.2798)" fill="white" fill-opacity="0.2"/>
<circle cx="1.68428" cy="1.68428" r="1.68428" transform="matrix(-1 0 0 1 38.0658 44.0244)" fill="white" fill-opacity="0.2"/>
<circle cx="1.55472" cy="1.55472" r="1.55472" transform="matrix(-1 0 0 1 37.9361 37.0286)" fill="white" fill-opacity="0.2"/>
<circle cx="1.42516" cy="1.42516" r="1.42516" transform="matrix(-1 0 0 1 37.8065 30.291)" fill="white" fill-opacity="0.2"/>
<circle cx="1.2956" cy="1.2956" r="1.2956" transform="matrix(-1 0 0 1 37.6768 23.813)" fill="white" fill-opacity="0.2"/>
<circle cx="1.16604" cy="1.16604" r="1.16604" transform="matrix(-1 0 0 1 37.5471 17.5942)" fill="white" fill-opacity="0.2"/>
<circle cx="0.906922" cy="0.906922" r="0.906922" transform="matrix(-1 0 0 1 37.2885 11.8936)" fill="white" fill-opacity="0.2"/>
<circle cx="36.3809" cy="68.6415" r="1.81384" transform="rotate(180 36.3809 68.6415)" fill="white" fill-opacity="0.2"/>
<circle cx="36.3815" cy="76.0262" r="1.68428" transform="rotate(180 36.3815 76.0262)" fill="white" fill-opacity="0.2"/>
<circle cx="36.3814" cy="83.1518" r="1.55472" transform="rotate(180 36.3814 83.1518)" fill="white" fill-opacity="0.2"/>
<circle cx="36.3813" cy="90.0187" r="1.42516" transform="rotate(180 36.3813 90.0187)" fill="white" fill-opacity="0.2"/>
<circle cx="36.3812" cy="96.6263" r="1.2956" transform="rotate(180 36.3812 96.6263)" fill="white" fill-opacity="0.2"/>
<circle cx="36.3811" cy="102.975" r="1.16604" transform="rotate(180 36.3811 102.975)" fill="white" fill-opacity="0.2"/>
<circle cx="1.9249" cy="1.9249" r="1.9249" transform="matrix(-1 0 0 1 29.779 58.9426)" fill="white" fill-opacity="0.2"/>
<circle cx="1.68428" cy="1.68428" r="1.68428" transform="matrix(-1 0 0 1 29.5384 51.9648)" fill="white" fill-opacity="0.2"/>
<circle cx="1.56398" cy="1.56398" r="1.56398" transform="matrix(-1 0 0 1 29.4181 45.2273)" fill="white" fill-opacity="0.2"/>
<circle cx="1.44367" cy="1.44367" r="1.44367" transform="matrix(-1 0 0 1 29.2978 38.7314)" fill="white" fill-opacity="0.2"/>
<circle cx="1.32337" cy="1.32337" r="1.32337" transform="matrix(-1 0 0 1 29.1775 32.4751)" fill="white" fill-opacity="0.2"/>
<circle cx="1.20306" cy="1.20306" r="1.20306" transform="matrix(-1 0 0 1 29.0572 26.4597)" fill="white" fill-opacity="0.2"/>
<circle cx="1.08275" cy="1.08275" r="1.08275" transform="matrix(-1 0 0 1 28.9369 20.6853)" fill="white" fill-opacity="0.2"/>
<circle cx="0.842142" cy="0.842142" r="0.842142" transform="matrix(-1 0 0 1 28.6963 15.3916)" fill="white" fill-opacity="0.2"/>
<circle cx="27.8541" cy="68.086" r="1.68428" transform="rotate(180 27.8541 68.086)" fill="white" fill-opacity="0.2"/>
<circle cx="27.8541" cy="74.9436" r="1.56398" transform="rotate(180 27.8541 74.9436)" fill="white" fill-opacity="0.2"/>
<circle cx="27.8541" cy="81.56" r="1.44367" transform="rotate(180 27.8541 81.56)" fill="white" fill-opacity="0.2"/>
<circle cx="27.8541" cy="87.9364" r="1.32337" transform="rotate(180 27.8541 87.9364)" fill="white" fill-opacity="0.2"/>
<circle cx="27.8541" cy="94.0723" r="1.20306" transform="rotate(180 27.8541 94.0723)" fill="white" fill-opacity="0.2"/>
<circle cx="27.8541" cy="99.9668" r="1.08275" transform="rotate(180 27.8541 99.9668)" fill="white" fill-opacity="0.2"/>
<circle cx="1.77683" cy="1.77683" r="1.77683" transform="matrix(-1 0 0 1 21.1031 59.0903)" fill="white" fill-opacity="0.2"/>
<ellipse cx="1.55472" cy="1.55472" rx="1.55472" ry="1.55472" transform="matrix(-1 0 0 1 20.8813 52.6499)" fill="white" fill-opacity="0.2"/>
<circle cx="1.44367" cy="1.44367" r="1.44367" transform="matrix(-1 0 0 1 20.7704 46.4312)" fill="white" fill-opacity="0.2"/>
<circle cx="1.33262" cy="1.33262" r="1.33262" transform="matrix(-1 0 0 1 20.6594 40.4343)" fill="white" fill-opacity="0.2"/>
<circle cx="1.22157" cy="1.22157" r="1.22157" transform="matrix(-1 0 0 1 20.5485 34.6592)" fill="white" fill-opacity="0.2"/>
<circle cx="1.11052" cy="1.11052" r="1.11052" transform="matrix(-1 0 0 1 20.4369 29.1069)" fill="white" fill-opacity="0.2"/>
<circle cx="0.999465" cy="0.999465" r="0.999465" transform="matrix(-1 0 0 1 20.3259 23.7764)" fill="white" fill-opacity="0.2"/>
<ellipse cx="0.777362" cy="0.777362" rx="0.777362" ry="0.777362" transform="matrix(-1 0 0 1 20.1041 18.8901)" fill="white" fill-opacity="0.2"/>
<ellipse cx="19.3266" cy="67.5305" rx="1.55472" ry="1.55472" transform="rotate(180 19.3266 67.5305)" fill="white" fill-opacity="0.2"/>
<circle cx="19.3267" cy="73.8608" r="1.44367" transform="rotate(180 19.3267 73.8608)" fill="white" fill-opacity="0.2"/>
<circle cx="19.3268" cy="79.9682" r="1.33262" transform="rotate(180 19.3268 79.9682)" fill="white" fill-opacity="0.2"/>
<circle cx="19.327" cy="85.8541" r="1.22157" transform="rotate(180 19.327 85.8541)" fill="white" fill-opacity="0.2"/>
<circle cx="19.3264" cy="91.5174" r="1.11052" transform="rotate(180 19.3264 91.5174)" fill="white" fill-opacity="0.2"/>
<circle cx="19.3265" cy="96.959" r="0.999465" transform="rotate(180 19.3265 96.959)" fill="white" fill-opacity="0.2"/>
<circle cx="1.62876" cy="1.62876" r="1.62876" transform="matrix(-1 0 0 1 12.4281 59.2388)" fill="white" fill-opacity="0.2"/>
<circle cx="1.42516" cy="1.42516" r="1.42516" transform="matrix(-1 0 0 1 12.225 53.3342)" fill="white" fill-opacity="0.2"/>
<circle cx="1.32337" cy="1.32337" r="1.32337" transform="matrix(-1 0 0 1 12.1227 47.634)" fill="white" fill-opacity="0.2"/>
<circle cx="1.22157" cy="1.22157" r="1.22157" transform="matrix(-1 0 0 1 12.0211 42.1365)" fill="white" fill-opacity="0.2"/>
<circle cx="1.11977" cy="1.11977" r="1.11977" transform="matrix(-1 0 0 1 11.9196 36.8433)" fill="white" fill-opacity="0.2"/>
<ellipse cx="1.01797" cy="1.01797" rx="1.01797" ry="1.01797" transform="matrix(-1 0 0 1 11.8173 31.7534)" fill="white" fill-opacity="0.2"/>
<circle cx="0.916177" cy="0.916177" r="0.916177" transform="matrix(-1 0 0 1 11.7157 26.8674)" fill="white" fill-opacity="0.2"/>
<circle cx="10.7998" cy="66.975" r="1.42516" transform="rotate(180 10.7998 66.975)" fill="white" fill-opacity="0.2"/>
<circle cx="10.7993" cy="72.7775" r="1.32337" transform="rotate(180 10.7993 72.7775)" fill="white" fill-opacity="0.2"/>
<circle cx="10.7995" cy="78.3763" r="1.22157" transform="rotate(180 10.7995 78.3763)" fill="white" fill-opacity="0.2"/>
<circle cx="10.7998" cy="83.7718" r="1.11977" transform="rotate(180 10.7998 83.7718)" fill="white" fill-opacity="0.2"/>
<ellipse cx="10.7993" cy="88.9635" rx="1.01797" ry="1.01797" transform="rotate(180 10.7993 88.9635)" fill="white" fill-opacity="0.2"/>
<circle cx="1.48069" cy="1.48069" r="1.48069" transform="matrix(-1 0 0 1 3.75299 59.3872)" fill="white" fill-opacity="0.2"/>
<circle cx="1.2956" cy="1.2956" r="1.2956" transform="matrix(-1 0 0 1 3.56787 54.0193)" fill="white" fill-opacity="0.2"/>
<circle cx="1.20306" cy="1.20306" r="1.20306" transform="matrix(-1 0 0 1 3.47498 48.8369)" fill="white" fill-opacity="0.2"/>
<circle cx="1.11052" cy="1.11052" r="1.11052" transform="matrix(-1 0 0 1 3.38275 43.8394)" fill="white" fill-opacity="0.2"/>
<circle cx="1.01797" cy="1.01797" r="1.01797" transform="matrix(-1 0 0 1 3.28986 39.0273)" fill="white" fill-opacity="0.2"/>
<circle cx="2.27227" cy="66.4202" r="1.2956" transform="rotate(180 2.27227 66.4202)" fill="white" fill-opacity="0.2"/>
<circle cx="2.27192" cy="71.6949" r="1.20306" transform="rotate(180 2.27192 71.6949)" fill="white" fill-opacity="0.2"/>
<circle cx="2.27223" cy="76.785" r="1.11052" transform="rotate(180 2.27223 76.785)" fill="white" fill-opacity="0.2"/>
</svg>
