<svg width="249" height="125" viewBox="0 0 249 125" fill="none" xmlns="http://www.w3.org/2000/svg">
<g filter="url(#filter0_d_40_49)">
<rect x="24" y="15" width="209" height="84.2839" rx="40.231" fill="white" shape-rendering="crispEdges"/>
<path d="M71.7237 55.4211C71.7237 54.7978 71.6198 54.242 71.412 53.7537C71.2042 53.2654 70.8614 52.8291 70.3835 52.4447C69.916 52.0499 69.2823 51.6863 68.4823 51.3538C67.6928 51.011 66.7058 50.6734 65.5215 50.3409C64.3891 50.0189 63.3658 49.6656 62.4515 49.2813C61.5373 48.8969 60.753 48.4553 60.0984 47.9567C59.4543 47.458 58.9609 46.8762 58.618 46.2113C58.2752 45.536 58.1038 44.7517 58.1038 43.8582C58.1038 42.9855 58.2908 42.1908 58.6648 41.4739C59.0388 40.7571 59.5634 40.139 60.2387 39.6195C60.9244 39.1001 61.7295 38.7001 62.6541 38.4196C63.5891 38.1391 64.6124 37.9988 65.7241 37.9988C67.3136 37.9988 68.6849 38.3001 69.8381 38.9027C71.0017 39.5052 71.9003 40.3208 72.534 41.3493C73.1781 42.3674 73.5002 43.5102 73.5002 44.7776H71.5834C71.5834 43.7907 71.3497 42.9128 70.8822 42.144C70.4251 41.3649 69.7602 40.7571 68.8875 40.3208C68.0252 39.874 66.9707 39.6507 65.7241 39.6507C64.4774 39.6507 63.4281 39.8429 62.5762 40.2273C61.7347 40.6013 61.0958 41.1051 60.6594 41.7389C60.2335 42.3622 60.0205 43.0583 60.0205 43.827C60.0205 44.3673 60.1244 44.8659 60.3322 45.3231C60.54 45.7698 60.8776 46.1905 61.3451 46.5853C61.823 46.9697 62.4515 47.3333 63.2307 47.6762C64.0099 48.0086 64.9709 48.3255 66.1137 48.6267C67.3188 48.9592 68.3888 49.328 69.3238 49.7332C70.2589 50.1383 71.0484 50.6058 71.6925 51.1357C72.3366 51.6551 72.8249 52.2629 73.1574 52.9589C73.4898 53.655 73.656 54.4653 73.656 55.39C73.656 56.3146 73.4587 57.1457 73.0639 57.8833C72.6795 58.6105 72.1341 59.2287 71.4276 59.7377C70.7315 60.2468 69.9056 60.6364 68.9498 60.9065C68.0044 61.1766 66.9707 61.3117 65.8487 61.3117C64.841 61.3117 63.8385 61.1818 62.8411 60.9221C61.8438 60.6624 60.9296 60.2624 60.0984 59.7222C59.2777 59.1715 58.618 58.4651 58.1193 57.6028C57.6311 56.7405 57.3869 55.712 57.3869 54.5173H59.2881C59.2881 55.4731 59.4803 56.2782 59.8647 56.9327C60.2491 57.5872 60.7581 58.1171 61.3919 58.5222C62.036 58.9274 62.7424 59.2235 63.5112 59.4105C64.2904 59.5871 65.0696 59.6754 65.8487 59.6754C67.0435 59.6754 68.0772 59.4988 68.9498 59.1456C69.8329 58.7923 70.5134 58.2989 70.9913 57.6651C71.4796 57.021 71.7237 56.273 71.7237 55.4211ZM83.7385 44.1387V45.6659H75.2923V44.1387H83.7385ZM78.3934 39.8065H80.2478V56.9016C80.2478 57.6807 80.3517 58.2677 80.5595 58.6625C80.7673 59.0573 81.0374 59.3222 81.3698 59.4572C81.7023 59.5923 82.0607 59.6598 82.4451 59.6598C82.7256 59.6598 82.9957 59.6442 83.2554 59.6131C83.5152 59.5715 83.7489 59.53 83.9567 59.4884L84.0346 61.0623C83.8061 61.1351 83.51 61.1922 83.1464 61.2338C82.7827 61.2857 82.4191 61.3117 82.0555 61.3117C81.3387 61.3117 80.705 61.1818 80.1543 60.9221C79.6037 60.652 79.1726 60.1949 78.8609 59.5507C78.5492 58.8962 78.3934 58.008 78.3934 56.886V39.8065ZM92.6523 59.317L97.9039 44.1387H99.9141L92.7769 63.7115C92.6315 64.0959 92.4445 64.5219 92.2159 64.9894C91.9978 65.4569 91.7069 65.9036 91.3432 66.3295C90.99 66.7659 90.5433 67.1191 90.0031 67.3892C89.4732 67.6697 88.8239 67.81 88.0551 67.81C87.8578 67.81 87.6032 67.784 87.2916 67.732C86.9903 67.6905 86.7721 67.6489 86.637 67.6074L86.6215 66.0335C86.7357 66.0646 86.902 66.0906 87.1201 66.1114C87.3383 66.1321 87.4889 66.1425 87.5721 66.1425C88.2473 66.1425 88.8135 66.0283 89.2707 65.7997C89.7382 65.5711 90.1277 65.2283 90.4394 64.7712C90.7511 64.3245 91.0264 63.7635 91.2653 63.0882L92.6523 59.317ZM87.7435 44.1387L93.1198 58.6157L93.6184 60.5637L92.2627 61.3273L85.7176 44.1387H87.7435ZM104.901 37.0638V61H103.046V37.0638H104.901ZM116.511 61.3117C115.409 61.3117 114.396 61.1091 113.472 60.7039C112.558 60.2987 111.758 59.7274 111.072 58.9897C110.397 58.2521 109.872 57.3794 109.498 56.3717C109.134 55.3536 108.953 54.242 108.953 53.0369V52.3668C108.953 51.0682 109.145 49.8942 109.529 48.8449C109.914 47.7956 110.443 46.897 111.119 46.149C111.794 45.401 112.563 44.8296 113.425 44.4348C114.298 44.0296 115.212 43.827 116.168 43.827C117.238 43.827 118.188 44.0192 119.019 44.4036C119.851 44.7776 120.547 45.3127 121.108 46.0087C121.679 46.6944 122.11 47.5099 122.401 48.4553C122.692 49.3903 122.837 50.424 122.837 51.5564V52.694H110.075V51.1045H120.983V50.8863C120.962 49.9409 120.77 49.0579 120.406 48.2372C120.053 47.406 119.523 46.7308 118.817 46.2113C118.11 45.6919 117.227 45.4321 116.168 45.4321C115.378 45.4321 114.651 45.5984 113.986 45.9308C113.331 46.2633 112.765 46.7411 112.287 47.3645C111.82 47.9774 111.456 48.7099 111.197 49.5618C110.947 50.4033 110.823 51.3383 110.823 52.3668V53.0369C110.823 53.9719 110.958 54.8445 111.228 55.6549C111.508 56.4548 111.903 57.1613 112.412 57.7742C112.932 58.3872 113.544 58.8651 114.251 59.2079C114.957 59.5507 115.737 59.7222 116.588 59.7222C117.586 59.7222 118.469 59.5404 119.238 59.1767C120.006 58.8027 120.697 58.2158 121.31 57.4158L122.479 58.3196C122.115 58.8599 121.658 59.3585 121.108 59.8157C120.567 60.2728 119.918 60.6364 119.16 60.9065C118.401 61.1766 117.518 61.3117 116.511 61.3117Z" fill="black"/>
<path d="M132.775 61V60.0691H134.219V39.4614H132.775V38.5306H138.569V39.4614H137.092V60.0691H138.36C138.82 60.0691 139.19 59.914 139.468 59.6037C139.757 59.2934 139.971 58.844 140.11 58.2555C140.249 57.6563 140.318 56.9288 140.318 56.0728H141.249V61H132.775ZM147.743 61.3531C147.143 61.3531 146.56 61.1658 145.993 60.7914C145.437 60.4062 144.929 59.8444 144.468 59.1061C144.019 58.3572 143.661 57.437 143.393 56.3456C143.136 55.2435 143.008 53.9756 143.008 52.5419C143.008 50.969 143.147 49.6422 143.425 48.5616C143.703 47.4702 144.073 46.5928 144.533 45.9294C144.993 45.266 145.501 44.7846 146.057 44.485C146.614 44.1854 147.175 44.0356 147.743 44.0356C148.31 44.0356 148.871 44.1854 149.428 44.485C149.995 44.7846 150.508 45.266 150.969 45.9294C151.439 46.5928 151.814 47.4702 152.092 48.5616C152.381 49.6422 152.525 50.969 152.525 52.5419C152.525 53.9756 152.392 55.2435 152.124 56.3456C151.857 57.437 151.493 58.3572 151.033 59.1061C150.583 59.8444 150.07 60.4062 149.492 60.7914C148.925 61.1658 148.342 61.3531 147.743 61.3531ZM147.743 60.358C148.299 60.358 148.738 59.7214 149.059 58.4481C149.39 57.1641 149.556 55.1954 149.556 52.5419C149.556 49.9204 149.39 48.0159 149.059 46.8282C148.738 45.6298 148.299 45.0306 147.743 45.0306C147.197 45.0306 146.758 45.6298 146.426 46.8282C146.105 48.0159 145.945 49.9204 145.945 52.5419C145.945 55.1954 146.105 57.1641 146.426 58.4481C146.758 59.7214 147.197 60.358 147.743 60.358ZM158.645 61.3531C158.014 61.3531 157.436 61.2247 156.912 60.9679C156.388 60.7111 155.97 60.235 155.66 59.5395C155.35 58.8333 155.195 57.8168 155.195 56.4901V45.1269H153.654V44.2121H158.083V56.2012C158.083 57.2283 158.132 58.0201 158.228 58.5765C158.335 59.1222 158.49 59.502 158.693 59.716C158.897 59.93 159.143 60.037 159.432 60.037C159.806 60.037 160.127 59.8498 160.395 59.4753C160.673 59.1008 160.881 58.6086 161.021 57.9987C161.16 57.3781 161.229 56.7148 161.229 56.0086V45.1269H159.785V44.2121H164.118V60.0691H165.514V61H161.518L161.39 59.1543C161.336 59.4539 161.197 59.7749 160.972 60.1173C160.758 60.4597 160.459 60.7539 160.074 61C159.688 61.2354 159.212 61.3531 158.645 61.3531ZM166.417 61V60.0691H168.022V45.1269H166.417V44.1961H170.863V46.0418C170.927 45.7957 171.072 45.5175 171.296 45.2072C171.521 44.8862 171.831 44.6134 172.227 44.3887C172.623 44.1533 173.094 44.0356 173.64 44.0356C174.196 44.0356 174.72 44.1693 175.212 44.4368C175.705 44.6936 176.106 45.1804 176.416 45.8973C176.726 46.6142 176.882 47.6735 176.882 49.0751V60.0691H178.454V61H172.725V60.0691H173.993V49.2998C173.993 47.9731 173.886 47.0101 173.672 46.4109C173.468 45.801 173.126 45.4961 172.644 45.4961C172.409 45.4961 172.184 45.5924 171.97 45.785C171.767 45.9776 171.585 46.229 171.425 46.5393C171.275 46.8496 171.152 47.1973 171.056 47.5825C170.97 47.957 170.922 48.3369 170.911 48.7221V60.0691H172.163V61H166.417ZM184.567 68.9927C183.614 68.9927 182.753 68.8162 181.983 68.4631C181.212 68.11 180.602 67.6124 180.153 66.9705C179.704 66.3285 179.479 65.5795 179.479 64.7235C179.479 64.0815 179.581 63.5305 179.784 63.0704C179.998 62.6103 180.255 62.2305 180.554 61.9309C180.864 61.642 181.169 61.4173 181.469 61.2568C181.769 61.0963 182.009 60.9893 182.191 60.9358C182.106 60.9144 181.945 60.8556 181.71 60.7593C181.474 60.663 181.223 60.5185 180.955 60.3259C180.699 60.1226 180.474 59.8605 180.281 59.5395C180.089 59.2078 179.992 58.8066 179.992 58.3358C179.992 57.9185 180.078 57.5654 180.249 57.2765C180.431 56.9769 180.645 56.7469 180.891 56.5864C181.148 56.4152 181.378 56.3135 181.581 56.2814C181.624 56.2814 181.678 56.2761 181.742 56.2654C181.806 56.2547 181.849 56.2493 181.87 56.2493C181.753 56.1637 181.592 55.9925 181.389 55.7357C181.185 55.4789 180.977 55.1312 180.763 54.6925C180.56 54.2538 180.383 53.7135 180.233 53.0715C180.094 52.4295 180.025 51.6752 180.025 50.8085C180.025 49.5245 180.164 48.4546 180.442 47.5986C180.72 46.7319 181.084 46.0364 181.533 45.5121C181.983 44.9878 182.475 44.6134 183.01 44.3887C183.545 44.1533 184.074 44.0356 184.599 44.0356C185.562 44.0356 186.369 44.3031 187.022 44.8381C187.675 45.373 188.172 46.1274 188.515 47.101C188.857 48.0747 189.028 49.2249 189.028 50.5517C189.028 51.8464 188.889 52.9271 188.611 53.7937C188.344 54.6604 187.985 55.3505 187.536 55.8641C187.097 56.3777 186.61 56.7469 186.075 56.9716C185.551 57.1855 185.037 57.2925 184.534 57.2925C183.978 57.2925 183.539 57.2337 183.218 57.116C182.897 56.9876 182.705 56.9074 182.641 56.8753C182.63 56.8646 182.614 56.8592 182.592 56.8592C182.582 56.8592 182.566 56.8592 182.544 56.8592C182.362 56.8592 182.159 56.9502 181.934 57.132C181.71 57.3139 181.597 57.5761 181.597 57.9185C181.597 58.3786 181.854 58.7584 182.368 59.058C182.881 59.3469 183.786 59.5983 185.08 59.8123C186.61 60.0477 187.771 60.5185 188.563 61.2247C189.365 61.9309 189.767 62.9902 189.767 64.4025C189.767 65.2371 189.601 65.9486 189.269 66.5371C188.948 67.1256 188.525 67.5964 188.001 67.9495C187.488 68.3133 186.926 68.5754 186.316 68.7359C185.717 68.9071 185.134 68.9927 184.567 68.9927ZM184.567 68.11C185.348 68.11 185.974 67.8104 186.444 67.2112C186.915 66.612 187.151 65.8951 187.151 65.0605C187.151 64.1511 187.011 63.4663 186.733 63.0062C186.455 62.5461 185.984 62.1984 185.321 61.963C185.086 61.8774 184.845 61.7864 184.599 61.6901C184.353 61.6045 184.128 61.5243 183.925 61.4494C183.721 61.3745 183.561 61.321 183.443 61.2889C183.144 61.4494 182.876 61.6901 182.641 62.0111C182.416 62.3428 182.239 62.7334 182.111 63.1827C181.983 63.6321 181.918 64.1243 181.918 64.6593C181.918 65.2585 182.015 65.8202 182.207 66.3445C182.4 66.8688 182.694 67.2914 183.09 67.6124C183.486 67.9441 183.978 68.11 184.567 68.11ZM184.534 56.3456C184.813 56.3456 185.069 56.2065 185.305 55.9283C185.551 55.6501 185.744 55.1044 185.883 54.2913C186.022 53.4674 186.091 52.2423 186.091 50.6159C186.091 49.0537 186.022 47.8714 185.883 47.0689C185.744 46.2665 185.556 45.7208 185.321 45.4319C185.096 45.143 184.845 44.9985 184.567 44.9985C184.288 44.9985 184.026 45.143 183.78 45.4319C183.534 45.7208 183.336 46.2772 183.186 47.101C183.037 47.9142 182.962 49.1126 182.962 50.6962C182.962 52.3011 183.037 53.5102 183.186 54.3234C183.336 55.1258 183.529 55.6662 183.764 55.9444C184.01 56.2119 184.267 56.3456 184.534 56.3456ZM186.3 45.159C186.396 44.5171 186.69 43.9928 187.183 43.5862C187.675 43.1796 188.21 42.9763 188.788 42.9763C189.248 42.9763 189.574 43.0886 189.767 43.3133C189.97 43.5273 190.072 43.8162 190.072 44.18C190.072 44.5117 189.981 44.7739 189.799 44.9664C189.617 45.159 189.376 45.2553 189.077 45.2553C188.809 45.2553 188.611 45.1911 188.483 45.0627C188.365 44.9344 188.258 44.806 188.162 44.6776C188.065 44.5492 187.921 44.485 187.728 44.485C187.589 44.485 187.461 44.5438 187.343 44.6615C187.236 44.7792 187.183 44.9557 187.183 45.1911L186.3 45.159ZM196.19 61.337C195.388 61.337 194.687 61.1177 194.088 60.679C193.489 60.2296 192.991 59.609 192.595 58.8173C192.199 58.0148 191.9 57.0839 191.696 56.0246C191.504 54.9547 191.407 53.7991 191.407 52.5579C191.407 51.092 191.541 49.8241 191.809 48.7542C192.076 47.6735 192.435 46.7854 192.884 46.0899C193.344 45.3944 193.852 44.8809 194.409 44.5492C194.976 44.2068 195.548 44.0356 196.126 44.0356C196.811 44.0356 197.415 44.2335 197.94 44.6294C198.475 45.0146 198.924 45.5442 199.288 46.2183C199.652 46.8817 199.924 47.6521 200.106 48.5295C200.299 49.3961 200.395 50.3163 200.395 51.29C200.395 51.504 200.395 51.718 200.395 51.932C200.395 52.146 200.385 52.3546 200.363 52.5579H194.104V51.6431H197.587C197.587 50.1665 197.538 48.9361 197.442 47.9517C197.357 46.9673 197.207 46.2237 196.993 45.7208C196.779 45.2179 196.49 44.9664 196.126 44.9664C195.762 44.9664 195.447 45.2179 195.179 45.7208C194.912 46.213 194.703 46.9887 194.553 48.048C194.403 49.0965 194.328 50.4661 194.328 52.1567C194.328 53.3657 194.355 54.4732 194.409 55.4789C194.473 56.474 194.585 57.3353 194.746 58.0629C194.906 58.7798 195.131 59.3362 195.42 59.7321C195.709 60.1173 196.078 60.3099 196.527 60.3099C197.266 60.3099 197.849 60.1119 198.277 59.716C198.705 59.3094 198.999 58.8975 199.159 58.4802L199.946 58.9778C199.732 59.5876 199.288 60.1333 198.614 60.6148C197.95 61.0963 197.143 61.337 196.19 61.337Z" fill="#84484F"/>
<path d="M75.4324 77.2773H74.7878C74.7398 77.0372 74.6529 76.8155 74.5272 76.6121C74.4038 76.4064 74.2483 76.2269 74.0609 76.0738C73.8734 75.9206 73.6609 75.8017 73.4231 75.7172C73.1854 75.6326 72.9282 75.5903 72.6516 75.5903C72.2082 75.5903 71.8036 75.7057 71.4379 75.9366C71.0744 76.1675 70.783 76.5069 70.5635 76.955C70.3464 77.4007 70.2378 77.947 70.2378 78.5939C70.2378 79.2454 70.3464 79.794 70.5635 80.2397C70.783 80.6855 71.0744 81.0238 71.4379 81.2546C71.8036 81.4832 72.2082 81.5975 72.6516 81.5975C72.9282 81.5975 73.1854 81.5552 73.4231 81.4707C73.6609 81.3861 73.8734 81.2684 74.0609 81.1175C74.2483 80.9643 74.4038 80.7849 74.5272 80.5792C74.6529 80.3734 74.7398 80.1506 74.7878 79.9106H75.4324C75.3752 80.2329 75.2678 80.5335 75.1101 80.8123C74.9546 81.0889 74.7558 81.3312 74.5135 81.5392C74.2735 81.7472 73.9969 81.9095 73.6837 82.0261C73.3705 82.1427 73.0265 82.201 72.6516 82.201C72.0619 82.201 71.5384 82.0535 71.0813 81.7587C70.6241 81.4615 70.2652 81.0432 70.0046 80.5037C69.7463 79.9643 69.6172 79.3277 69.6172 78.5939C69.6172 77.8602 69.7463 77.2235 70.0046 76.6841C70.2652 76.1446 70.6241 75.7275 71.0813 75.4326C71.5384 75.1354 72.0619 74.9868 72.6516 74.9868C73.0265 74.9868 73.3705 75.0451 73.6837 75.1617C73.9969 75.276 74.2735 75.4383 74.5135 75.6486C74.7558 75.8566 74.9546 76.0989 75.1101 76.3755C75.2678 76.6521 75.3752 76.9527 75.4324 77.2773ZM77.4219 78.8134V82.105H76.8116V75.0828H77.4219V77.6647H77.4768C77.6002 77.3927 77.7911 77.1755 78.0494 77.0132C78.31 76.8509 78.6392 76.7698 79.0369 76.7698C79.3935 76.7698 79.7066 76.8429 79.9764 76.9892C80.2461 77.1355 80.4564 77.3516 80.6073 77.6373C80.7581 77.923 80.8336 78.275 80.8336 78.6933V82.105H80.2198V78.7311C80.2198 78.2968 80.0987 77.955 79.8564 77.7059C79.6164 77.4544 79.2918 77.3287 78.8826 77.3287C78.6014 77.3287 78.3511 77.3881 78.1317 77.507C77.9123 77.6259 77.7385 77.7973 77.6105 78.0213C77.4848 78.243 77.4219 78.507 77.4219 78.8134ZM83.9118 82.225C83.594 82.225 83.3037 82.1633 83.0408 82.0398C82.778 81.9141 82.5688 81.7335 82.4134 81.4981C82.2579 81.2604 82.1802 80.9723 82.1802 80.634C82.1802 80.3734 82.2294 80.154 82.3277 79.9757C82.426 79.7974 82.5654 79.6511 82.746 79.5368C82.9266 79.4225 83.1403 79.3322 83.3872 79.266C83.634 79.1997 83.906 79.1482 84.2032 79.1117C84.4981 79.0751 84.7472 79.0431 84.9507 79.0157C85.1564 78.9882 85.313 78.9448 85.4204 78.8854C85.5279 78.8259 85.5816 78.7299 85.5816 78.5973V78.4739C85.5816 78.115 85.4741 77.8327 85.2593 77.627C85.0467 77.419 84.7404 77.315 84.3404 77.315C83.9609 77.315 83.6512 77.3984 83.4112 77.5653C83.1734 77.7321 83.0066 77.9287 82.9106 78.155L82.3311 77.9459C82.45 77.6579 82.6145 77.4281 82.8248 77.2567C83.0351 77.083 83.2706 76.9584 83.5312 76.883C83.7917 76.8052 84.0558 76.7664 84.3232 76.7664C84.5244 76.7664 84.7335 76.7927 84.9507 76.8452C85.1701 76.8978 85.3736 76.9892 85.561 77.1195C85.7484 77.2475 85.9004 77.427 86.017 77.6579C86.1336 77.8864 86.1919 78.1767 86.1919 78.5288V82.105H85.5816V81.2718H85.5439C85.4707 81.4272 85.3621 81.5781 85.2181 81.7244C85.0741 81.8707 84.8935 81.9907 84.6764 82.0844C84.4592 82.1781 84.2043 82.225 83.9118 82.225ZM83.994 81.6661C84.3186 81.6661 84.5998 81.5941 84.8375 81.4501C85.0753 81.3061 85.2581 81.1152 85.3861 80.8775C85.5164 80.6375 85.5816 80.3734 85.5816 80.0854V79.3242C85.5359 79.3677 85.4593 79.4065 85.3518 79.4408C85.2467 79.4751 85.1244 79.506 84.985 79.5334C84.8478 79.5585 84.7107 79.5803 84.5735 79.5985C84.4364 79.6168 84.3129 79.6328 84.2032 79.6465C83.906 79.6831 83.6523 79.7403 83.442 79.818C83.2317 79.8957 83.0706 80.0031 82.9586 80.1403C82.8465 80.2752 82.7905 80.4489 82.7905 80.6615C82.7905 80.9815 82.9048 81.2295 83.1334 81.4055C83.362 81.5792 83.6489 81.6661 83.994 81.6661ZM88.4257 78.8134V82.105H87.8154V76.8384H88.4086V77.6647H88.4635C88.5869 77.395 88.7789 77.179 89.0395 77.0167C89.3024 76.8521 89.627 76.7698 90.0133 76.7698C90.3676 76.7698 90.6784 76.8441 90.9459 76.9927C91.2156 77.139 91.4248 77.355 91.5734 77.6407C91.7242 77.9264 91.7997 78.2773 91.7997 78.6933V82.105H91.1893V78.7311C91.1893 78.299 91.0682 77.9573 90.8259 77.7059C90.5859 77.4544 90.2636 77.3287 89.859 77.3287C89.5824 77.3287 89.3367 77.3881 89.1218 77.507C88.9069 77.6259 88.7366 77.7973 88.6109 78.0213C88.4875 78.243 88.4257 78.507 88.4257 78.8134ZM95.4162 84.1897C95.0573 84.1897 94.743 84.1428 94.4732 84.0491C94.2035 83.9577 93.9761 83.8319 93.7909 83.6719C93.6058 83.5119 93.4618 83.3325 93.3589 83.1336L93.8595 82.8045C93.9349 82.937 94.0355 83.0673 94.1612 83.1953C94.2892 83.3233 94.455 83.4296 94.6584 83.5142C94.8641 83.5988 95.1167 83.6411 95.4162 83.6411C95.8825 83.6411 96.2585 83.5245 96.5442 83.2913C96.8322 83.0582 96.9763 82.6959 96.9763 82.2044V81.0181H96.9214C96.8505 81.1781 96.7488 81.3381 96.6162 81.4981C96.4837 81.6558 96.3099 81.7872 96.0951 81.8924C95.8825 81.9975 95.6185 82.0501 95.303 82.0501C94.8824 82.0501 94.5087 81.9461 94.1818 81.7381C93.8572 81.5301 93.6012 81.2329 93.4138 80.8466C93.2286 80.458 93.136 79.9951 93.136 79.458C93.136 78.9254 93.2263 78.4568 93.4069 78.0522C93.5898 77.6476 93.8446 77.3321 94.1715 77.1058C94.4984 76.8795 94.879 76.7664 95.3133 76.7664C95.6356 76.7664 95.903 76.8235 96.1156 76.9378C96.3282 77.0498 96.4985 77.1893 96.6265 77.3561C96.7568 77.523 96.8585 77.6853 96.9317 77.843H96.9934V76.8384H97.59V82.2421C97.59 82.6879 97.4951 83.0548 97.3054 83.3428C97.1157 83.6308 96.8574 83.8434 96.5305 83.9805C96.2036 84.12 95.8322 84.1897 95.4162 84.1897ZM95.375 81.4912C95.7133 81.4912 96.0025 81.4101 96.2425 81.2478C96.4825 81.0832 96.6665 80.8478 96.7945 80.5415C96.9225 80.2352 96.9865 79.8706 96.9865 79.4477C96.9865 79.0362 96.9237 78.6716 96.798 78.3539C96.6722 78.0339 96.4894 77.7824 96.2494 77.5996C96.0116 77.4144 95.7202 77.3218 95.375 77.3218C95.023 77.3218 94.7258 77.4167 94.4835 77.6064C94.2412 77.7961 94.0584 78.0522 93.9349 78.3745C93.8115 78.6945 93.7498 79.0522 93.7498 79.4477C93.7498 79.85 93.8126 80.2054 93.9384 80.514C94.0641 80.8203 94.2481 81.0603 94.4904 81.2341C94.7327 81.4055 95.0276 81.4912 95.375 81.4912ZM101.335 82.2147C100.844 82.2147 100.418 82.1004 100.06 81.8718C99.7007 81.641 99.423 81.3221 99.2264 80.9152C99.0321 80.506 98.9349 80.0351 98.9349 79.5025C98.9349 78.9722 99.0321 78.5013 99.2264 78.0899C99.423 77.6761 99.6938 77.3527 100.039 77.1195C100.386 76.8841 100.788 76.7664 101.243 76.7664C101.528 76.7664 101.804 76.8189 102.069 76.9241C102.334 77.027 102.572 77.1858 102.782 77.4007C102.995 77.6133 103.163 77.8819 103.286 78.2065C103.409 78.5288 103.471 78.9105 103.471 79.3517V79.6534H99.3567V79.1151H102.847C102.847 78.7768 102.779 78.4728 102.641 78.203C102.507 77.931 102.318 77.7161 102.076 77.5584C101.836 77.4007 101.558 77.3218 101.243 77.3218C100.909 77.3218 100.615 77.411 100.361 77.5893C100.108 77.7676 99.9087 78.003 99.7647 78.2956C99.623 78.5882 99.551 78.9082 99.5487 79.2557V79.578C99.5487 79.9963 99.6207 80.362 99.7647 80.6752C99.911 80.9861 100.118 81.2272 100.385 81.3987C100.653 81.5701 100.969 81.6558 101.335 81.6558C101.584 81.6558 101.803 81.617 101.99 81.5392C102.18 81.4615 102.339 81.3575 102.467 81.2272C102.597 81.0946 102.695 80.9495 102.761 80.7918L103.341 80.9803C103.261 81.2021 103.129 81.4067 102.947 81.5941C102.766 81.7815 102.54 81.9324 102.268 82.0467C101.998 82.1587 101.687 82.2147 101.335 82.2147ZM109.606 76.8384V77.3698H107.093V76.8384H109.606ZM107.878 75.5766H108.492V80.73C108.492 80.9495 108.53 81.1221 108.605 81.2478C108.68 81.3712 108.779 81.4592 108.9 81.5118C109.021 81.5621 109.15 81.5872 109.287 81.5872C109.367 81.5872 109.436 81.5827 109.493 81.5735C109.55 81.5621 109.6 81.5507 109.644 81.5392L109.774 82.0913C109.715 82.1141 109.642 82.1347 109.555 82.153C109.468 82.1736 109.36 82.1838 109.232 82.1838C109.008 82.1838 108.792 82.1347 108.584 82.0364C108.379 81.9381 108.21 81.7918 108.077 81.5975C107.944 81.4032 107.878 81.1621 107.878 80.874V75.5766ZM111.716 78.8134V82.105H111.105V75.0828H111.716V77.6647H111.771C111.894 77.3927 112.085 77.1755 112.343 77.0132C112.604 76.8509 112.933 76.7698 113.331 76.7698C113.687 76.7698 114 76.8429 114.27 76.9892C114.54 77.1355 114.75 77.3516 114.901 77.6373C115.052 77.923 115.127 78.275 115.127 78.6933V82.105H114.514V78.7311C114.514 78.2968 114.392 77.955 114.15 77.7059C113.91 77.4544 113.586 77.3287 113.176 77.3287C112.895 77.3287 112.645 77.3881 112.425 77.507C112.206 77.6259 112.032 77.7973 111.904 78.0213C111.779 78.243 111.716 78.507 111.716 78.8134ZM118.864 82.2147C118.372 82.2147 117.947 82.1004 117.588 81.8718C117.229 81.641 116.952 81.3221 116.755 80.9152C116.561 80.506 116.464 80.0351 116.464 79.5025C116.464 78.9722 116.561 78.5013 116.755 78.0899C116.952 77.6761 117.223 77.3527 117.568 77.1195C117.915 76.8841 118.316 76.7664 118.771 76.7664C119.057 76.7664 119.332 76.8189 119.598 76.9241C119.863 77.027 120.101 77.1858 120.311 77.4007C120.523 77.6133 120.691 77.8819 120.815 78.2065C120.938 78.5288 121 78.9105 121 79.3517V79.6534H116.885V79.1151H120.376C120.376 78.7768 120.307 78.4728 120.17 78.203C120.035 77.931 119.847 77.7161 119.604 77.5584C119.364 77.4007 119.087 77.3218 118.771 77.3218C118.438 77.3218 118.144 77.411 117.89 77.5893C117.636 77.7676 117.437 78.003 117.293 78.2956C117.152 78.5882 117.08 78.9082 117.077 79.2557V79.578C117.077 79.9963 117.149 80.362 117.293 80.6752C117.44 80.9861 117.647 81.2272 117.914 81.3987C118.182 81.5701 118.498 81.6558 118.864 81.6558C119.113 81.6558 119.331 81.617 119.519 81.5392C119.708 81.4615 119.867 81.3575 119.995 81.2272C120.126 81.0946 120.224 80.9495 120.29 80.7918L120.87 80.9803C120.79 81.2021 120.658 81.4067 120.475 81.5941C120.295 81.7815 120.069 81.9324 119.796 82.0467C119.527 82.1587 119.216 82.2147 118.864 82.2147ZM126.408 82.105L124.484 75.0828H125.136L126.727 81.1209H126.782L128.373 75.0828H129.113L130.704 81.1209H130.759L132.35 75.0828H133.005L131.081 82.105H130.396L128.767 76.1492H128.722L127.094 82.105H126.408ZM135.018 82.225C134.7 82.225 134.41 82.1633 134.147 82.0398C133.884 81.9141 133.675 81.7335 133.519 81.4981C133.364 81.2604 133.286 80.9723 133.286 80.634C133.286 80.3734 133.335 80.154 133.434 79.9757C133.532 79.7974 133.671 79.6511 133.852 79.5368C134.032 79.4225 134.246 79.3322 134.493 79.266C134.74 79.1997 135.012 79.1482 135.309 79.1117C135.604 79.0751 135.853 79.0431 136.057 79.0157C136.262 78.9882 136.419 78.9448 136.526 78.8854C136.634 78.8259 136.688 78.7299 136.688 78.5973V78.4739C136.688 78.115 136.58 77.8327 136.365 77.627C136.153 77.419 135.846 77.315 135.446 77.315C135.067 77.315 134.757 77.3984 134.517 77.5653C134.279 77.7321 134.112 77.9287 134.016 78.155L133.437 77.9459C133.556 77.6579 133.72 77.4281 133.931 77.2567C134.141 77.083 134.377 76.9584 134.637 76.883C134.898 76.8052 135.162 76.7664 135.429 76.7664C135.63 76.7664 135.839 76.7927 136.057 76.8452C136.276 76.8978 136.479 76.9892 136.667 77.1195C136.854 77.2475 137.006 77.427 137.123 77.6579C137.24 77.8864 137.298 78.1767 137.298 78.5288V82.105H136.688V81.2718H136.65C136.577 81.4272 136.468 81.5781 136.324 81.7244C136.18 81.8707 135.999 81.9907 135.782 82.0844C135.565 82.1781 135.31 82.225 135.018 82.225ZM135.1 81.6661C135.425 81.6661 135.706 81.5941 135.943 81.4501C136.181 81.3061 136.364 81.1152 136.492 80.8775C136.622 80.6375 136.688 80.3734 136.688 80.0854V79.3242C136.642 79.3677 136.565 79.4065 136.458 79.4408C136.353 79.4751 136.23 79.506 136.091 79.5334C135.954 79.5585 135.817 79.5803 135.679 79.5985C135.542 79.6168 135.419 79.6328 135.309 79.6465C135.012 79.6831 134.758 79.7403 134.548 79.818C134.338 79.8957 134.176 80.0031 134.064 80.1403C133.952 80.2752 133.896 80.4489 133.896 80.6615C133.896 80.9815 134.011 81.2295 134.239 81.4055C134.468 81.5792 134.755 81.6661 135.1 81.6661ZM139.158 84.08C139.037 84.08 138.924 84.0685 138.818 84.0457C138.713 84.0228 138.63 83.9977 138.568 83.9702L138.733 83.4319C138.941 83.4959 139.126 83.5188 139.288 83.5005C139.451 83.4845 139.595 83.4113 139.72 83.2811C139.846 83.153 139.958 82.9565 140.056 82.6913L140.248 82.1564L138.311 76.8384H138.973L140.536 81.2992H140.584L142.148 76.8384H142.81L140.581 82.9382C140.487 83.1919 140.372 83.4033 140.235 83.5725C140.097 83.7439 139.939 83.8708 139.758 83.9531C139.58 84.0377 139.38 84.08 139.158 84.08ZM147.144 84.08C147.023 84.08 146.91 84.0685 146.805 84.0457C146.7 84.0228 146.616 83.9977 146.555 83.9702L146.719 83.4319C146.927 83.4959 147.112 83.5188 147.275 83.5005C147.437 83.4845 147.581 83.4113 147.707 83.2811C147.832 83.153 147.944 82.9565 148.043 82.6913L148.235 82.1564L146.298 76.8384H146.959L148.523 81.2992H148.571L150.134 76.8384H150.796L148.567 82.9382C148.474 83.1919 148.358 83.4033 148.221 83.5725C148.084 83.7439 147.925 83.8708 147.744 83.9531C147.566 84.0377 147.366 84.08 147.144 84.08ZM153.849 82.2147C153.394 82.2147 152.991 82.0993 152.642 81.8684C152.294 81.6375 152.022 81.3186 151.826 80.9118C151.629 80.5026 151.531 80.0306 151.531 79.4957C151.531 78.9562 151.629 78.4819 151.826 78.0727C152.022 77.6613 152.294 77.3413 152.642 77.1127C152.991 76.8818 153.394 76.7664 153.849 76.7664C154.303 76.7664 154.705 76.8818 155.052 77.1127C155.399 77.3436 155.672 77.6636 155.868 78.0727C156.067 78.4819 156.166 78.9562 156.166 79.4957C156.166 80.0306 156.068 80.5026 155.872 80.9118C155.675 81.3186 155.402 81.6375 155.052 81.8684C154.705 82.0993 154.303 82.2147 153.849 82.2147ZM153.849 81.6558C154.214 81.6558 154.524 81.5575 154.778 81.3609C155.031 81.1644 155.223 80.9026 155.354 80.5757C155.486 80.2489 155.553 79.8888 155.553 79.4957C155.553 79.1025 155.486 78.7413 155.354 78.4122C155.223 78.083 155.031 77.819 154.778 77.6201C154.524 77.4213 154.214 77.3218 153.849 77.3218C153.485 77.3218 153.175 77.4213 152.919 77.6201C152.666 77.819 152.472 78.083 152.34 78.4122C152.21 78.7413 152.144 79.1025 152.144 79.4957C152.144 79.8888 152.21 80.2489 152.34 80.5757C152.472 80.9026 152.666 81.1644 152.919 81.3609C153.173 81.5575 153.483 81.6558 153.849 81.6558ZM160.853 80.0923V76.8384H161.463V82.105H160.853V81.2306H160.805C160.681 81.5004 160.486 81.7255 160.218 81.9061C159.951 82.0844 159.624 82.1736 159.238 82.1736C158.902 82.1736 158.603 82.1004 158.343 81.9541C158.082 81.8055 157.878 81.5884 157.729 81.3026C157.58 81.0169 157.506 80.666 157.506 80.25V76.8384H158.117V80.2123C158.117 80.6237 158.238 80.9552 158.48 81.2066C158.722 81.4558 159.033 81.5804 159.413 81.5804C159.65 81.5804 159.879 81.5232 160.098 81.4089C160.318 81.2946 160.498 81.1278 160.64 80.9083C160.782 80.6866 160.853 80.4146 160.853 80.0923ZM169.734 76.8384C169.695 76.4475 169.523 76.1366 169.216 75.9057C168.91 75.6749 168.525 75.5594 168.061 75.5594C167.734 75.5594 167.446 75.6154 167.197 75.7275C166.95 75.8395 166.756 75.9949 166.614 76.1938C166.474 76.3904 166.405 76.6144 166.405 76.8658C166.405 77.051 166.445 77.2133 166.525 77.3527C166.605 77.4921 166.712 77.6121 166.847 77.7127C166.984 77.811 167.135 77.8956 167.3 77.9664C167.467 78.0373 167.635 78.0967 167.804 78.1447L168.544 78.3573C168.768 78.419 168.992 78.4979 169.216 78.5939C169.44 78.6899 169.645 78.8111 169.83 78.9574C170.018 79.1014 170.167 79.2785 170.279 79.4888C170.394 79.6968 170.451 79.9471 170.451 80.2397C170.451 80.6146 170.354 80.9518 170.159 81.2512C169.965 81.5507 169.686 81.7884 169.323 81.9644C168.959 82.1381 168.524 82.225 168.016 82.225C167.539 82.225 167.124 82.1461 166.772 81.9884C166.42 81.8284 166.143 81.6078 165.942 81.3266C165.741 81.0455 165.628 80.7198 165.602 80.3494H166.261C166.284 80.626 166.375 80.8603 166.535 81.0523C166.695 81.2444 166.903 81.3907 167.159 81.4912C167.415 81.5895 167.701 81.6387 168.016 81.6387C168.366 81.6387 168.677 81.5804 168.949 81.4638C169.223 81.3449 169.438 81.1804 169.593 80.9701C169.751 80.7575 169.83 80.5106 169.83 80.2294C169.83 79.9917 169.768 79.7928 169.645 79.6328C169.521 79.4705 169.349 79.3345 169.127 79.2248C168.908 79.1151 168.653 79.0179 168.363 78.9334L167.523 78.6865C166.972 78.5219 166.544 78.2945 166.24 78.0042C165.936 77.7139 165.784 77.3436 165.784 76.8932C165.784 76.5161 165.885 76.1846 166.086 75.8989C166.289 75.6109 166.564 75.3869 166.909 75.2269C167.256 75.0646 167.646 74.9834 168.078 74.9834C168.515 74.9834 168.901 75.0634 169.237 75.2234C169.573 75.3834 169.839 75.604 170.036 75.8852C170.235 76.1641 170.341 76.4818 170.355 76.8384H169.734ZM173.941 76.8384V77.3698H171.428V76.8384H173.941ZM172.213 75.5766H172.827V80.73C172.827 80.9495 172.865 81.1221 172.94 81.2478C173.015 81.3712 173.114 81.4592 173.235 81.5118C173.356 81.5621 173.485 81.5872 173.622 81.5872C173.702 81.5872 173.771 81.5827 173.828 81.5735C173.885 81.5621 173.935 81.5507 173.979 81.5392L174.109 82.0913C174.05 82.1141 173.977 82.1347 173.89 82.153C173.803 82.1736 173.695 82.1838 173.567 82.1838C173.343 82.1838 173.127 82.1347 172.919 82.0364C172.714 81.9381 172.545 81.7918 172.412 81.5975C172.279 81.4032 172.213 81.1621 172.213 80.874V75.5766ZM175.752 84.08C175.631 84.08 175.518 84.0685 175.413 84.0457C175.308 84.0228 175.224 83.9977 175.163 83.9702L175.327 83.4319C175.535 83.4959 175.72 83.5188 175.883 83.5005C176.045 83.4845 176.189 83.4113 176.315 83.2811C176.44 83.153 176.552 82.9565 176.651 82.6913L176.843 82.1564L174.906 76.8384H175.567L177.131 81.2992H177.179L178.742 76.8384H179.404L177.175 82.9382C177.082 83.1919 176.966 83.4033 176.829 83.5725C176.692 83.7439 176.533 83.8708 176.352 83.9531C176.174 84.0377 175.974 84.08 175.752 84.08ZM181.208 75.0828V82.105H180.598V75.0828H181.208ZM184.953 82.2147C184.461 82.2147 184.036 82.1004 183.677 81.8718C183.318 81.641 183.041 81.3221 182.844 80.9152C182.65 80.506 182.553 80.0351 182.553 79.5025C182.553 78.9722 182.65 78.5013 182.844 78.0899C183.041 77.6761 183.311 77.3527 183.657 77.1195C184.004 76.8841 184.405 76.7664 184.86 76.7664C185.146 76.7664 185.421 76.8189 185.686 76.9241C185.952 77.027 186.189 77.1858 186.4 77.4007C186.612 77.6133 186.78 77.8819 186.904 78.2065C187.027 78.5288 187.089 78.9105 187.089 79.3517V79.6534H182.974V79.1151H186.465C186.465 78.7768 186.396 78.4728 186.259 78.203C186.124 77.931 185.936 77.7161 185.693 77.5584C185.453 77.4007 185.176 77.3218 184.86 77.3218C184.526 77.3218 184.233 77.411 183.979 77.5893C183.725 77.7676 183.526 78.003 183.382 78.2956C183.241 78.5882 183.169 78.9082 183.166 79.2557V79.578C183.166 79.9963 183.238 80.362 183.382 80.6752C183.529 80.9861 183.735 81.2272 184.003 81.3987C184.27 81.5701 184.587 81.6558 184.953 81.6558C185.202 81.6558 185.42 81.617 185.608 81.5392C185.797 81.4615 185.956 81.3575 186.084 81.2272C186.214 81.0946 186.313 80.9495 186.379 80.7918L186.959 80.9803C186.879 81.2021 186.747 81.4067 186.564 81.5941C186.384 81.7815 186.157 81.9324 185.885 82.0467C185.616 82.1587 185.305 82.2147 184.953 82.2147Z" fill="black"/>
</g>
<defs>
<filter id="filter0_d_40_49" x="0" y="0" width="249" height="124.284" filterUnits="userSpaceOnUse" color-interpolation-filters="sRGB">
<feFlood flood-opacity="0" result="BackgroundImageFix"/>
<feColorMatrix in="SourceAlpha" type="matrix" values="0 0 0 0 0 0 0 0 0 0 0 0 0 0 0 0 0 0 127 0" result="hardAlpha"/>
<feOffset dx="-4" dy="5"/>
<feGaussianBlur stdDeviation="10"/>
<feComposite in2="hardAlpha" operator="out"/>
<feColorMatrix type="matrix" values="0 0 0 0 0 0 0 0 0 0 0 0 0 0 0 0 0 0 0.15 0"/>
<feBlend mode="normal" in2="BackgroundImageFix" result="effect1_dropShadow_40_49"/>
<feBlend mode="normal" in="SourceGraphic" in2="effect1_dropShadow_40_49" result="shape"/>
</filter>
</defs>
</svg>
