<svg width="14" height="14" viewBox="0 0 14 14" fill="none" xmlns="http://www.w3.org/2000/svg">
<path d="M1.64773 13.3101C1.44773 13.3101 1.27773 13.2401 1.13773 13.1001C0.997734 12.9601 0.927734 12.7901 0.927734 12.5901V1.07006C0.927734 0.870059 0.997734 0.700059 1.13773 0.560059C1.27773 0.420059 1.44773 0.350059 1.64773 0.350059H13.1677C13.3677 0.350059 13.5377 0.420059 13.6777 0.560059C13.8177 0.700059 13.8877 0.870059 13.8877 1.07006V12.5901C13.8877 12.7901 13.8177 12.9601 13.6777 13.1001C13.5377 13.2401 13.3677 13.3101 13.1677 13.3101H1.64773ZM4.52773 5.39006H2.36773V11.8701H4.52773V5.39006ZM12.4477 5.39006H5.96773V11.8701H12.4477V5.39006ZM12.4477 1.79006H2.36773V3.95006H12.4477V1.79006Z" fill="white"/>
</svg>
