<svg width="16" height="17" viewBox="0 0 16 17" fill="none" xmlns="http://www.w3.org/2000/svg">
<path d="M7.99998 15.1666C4.31798 15.1666 1.33331 12.1819 1.33331 8.49992C1.33331 4.81792 4.31798 1.83325 7.99998 1.83325C11.682 1.83325 14.6666 4.81792 14.6666 8.49992C14.6666 12.1819 11.682 15.1666 7.99998 15.1666ZM7.99998 13.8333C9.41447 13.8333 10.771 13.2713 11.7712 12.2712C12.7714 11.271 13.3333 9.91441 13.3333 8.49992C13.3333 7.08543 12.7714 5.72888 11.7712 4.72868C10.771 3.72849 9.41447 3.16659 7.99998 3.16659C6.58549 3.16659 5.22894 3.72849 4.22874 4.72868C3.22855 5.72888 2.66665 7.08543 2.66665 8.49992C2.66665 9.91441 3.22855 11.271 4.22874 12.2712C5.22894 13.2713 6.58549 13.8333 7.99998 13.8333ZM7.99998 5.16659C8.17679 5.16659 8.34636 5.23682 8.47138 5.36185C8.59641 5.48687 8.66665 5.65644 8.66665 5.83325V9.16659C8.66665 9.3434 8.59641 9.51297 8.47138 9.63799C8.34636 9.76301 8.17679 9.83325 7.99998 9.83325C7.82317 9.83325 7.6536 9.76301 7.52858 9.63799C7.40355 9.51297 7.33331 9.3434 7.33331 9.16659V5.83325C7.33331 5.65644 7.40355 5.48687 7.52858 5.36185C7.6536 5.23682 7.82317 5.16659 7.99998 5.16659ZM7.99998 11.8333C7.82317 11.8333 7.6536 11.763 7.52858 11.638C7.40355 11.513 7.33331 11.3434 7.33331 11.1666C7.33331 10.9898 7.40355 10.8202 7.52858 10.6952C7.6536 10.5702 7.82317 10.4999 7.99998 10.4999C8.17679 10.4999 8.34636 10.5702 8.47138 10.6952C8.59641 10.8202 8.66665 10.9898 8.66665 11.1666C8.66665 11.3434 8.59641 11.513 8.47138 11.638C8.34636 11.763 8.17679 11.8333 7.99998 11.8333Z" fill="white"/>
</svg>
